<mxfile host="app.diagrams.net" modified="2023-03-28T18:50:14.429Z" agent="Mozilla/5.0 (Windows NT 10.0; Win64; x64) AppleWebKit/537.36 (KHTML, like Gecko) Chrome/111.0.0.0 Safari/537.36" etag="lcjPvKR2AgtEJkggUUC7" version="21.1.1" type="device" pages="2">
  <diagram name="Page-1" id="ADL5ZloOHjzCloPeudtv">
    <mxGraphModel dx="2421" dy="1897" grid="1" gridSize="10" guides="1" tooltips="1" connect="1" arrows="1" fold="1" page="1" pageScale="1" pageWidth="827" pageHeight="1169" math="0" shadow="0">
      <root>
        <mxCell id="0" />
        <mxCell id="1" parent="0" />
        <mxCell id="bfF0iJRP3l3-DIMidtyF-48" value="" style="rounded=0;arcSize=10;dashed=1;fillColor=none;gradientColor=none;strokeWidth=3;strokeColor=#000033;" parent="1" vertex="1">
          <mxGeometry x="-510" y="-430" width="2600" height="2180" as="geometry" />
        </mxCell>
        <mxCell id="bfF0iJRP3l3-DIMidtyF-44" value="" style="rounded=0;arcSize=10;dashed=1;fillColor=none;gradientColor=none;strokeWidth=3;strokeColor=#666600;" parent="1" vertex="1">
          <mxGeometry x="120" y="260.38" width="1650" height="549.62" as="geometry" />
        </mxCell>
        <mxCell id="bfF0iJRP3l3-DIMidtyF-15" value="Public subnet" style="points=[[0,0],[0.25,0],[0.5,0],[0.75,0],[1,0],[1,0.25],[1,0.5],[1,0.75],[1,1],[0.75,1],[0.5,1],[0.25,1],[0,1],[0,0.75],[0,0.5],[0,0.25]];outlineConnect=0;gradientColor=none;html=1;whiteSpace=wrap;fontSize=12;fontStyle=0;container=1;pointerEvents=0;collapsible=0;recursiveResize=0;shape=mxgraph.aws4.group;grIcon=mxgraph.aws4.group_security_group;grStroke=0;strokeColor=#248814;fillColor=#E9F3E6;verticalAlign=top;align=left;spacingLeft=30;fontColor=#248814;dashed=0;" parent="1" vertex="1">
          <mxGeometry x="184" y="-170" width="250" height="340" as="geometry" />
        </mxCell>
        <mxCell id="bfF0iJRP3l3-DIMidtyF-16" value="" style="outlineConnect=0;dashed=0;verticalLabelPosition=bottom;verticalAlign=top;align=center;html=1;shape=mxgraph.aws3.vpc_nat_gateway;fillColor=#F58534;gradientColor=none;" parent="bfF0iJRP3l3-DIMidtyF-15" vertex="1">
          <mxGeometry x="16" y="102" width="60" height="59" as="geometry" />
        </mxCell>
        <mxCell id="bfF0iJRP3l3-DIMidtyF-39" value="&lt;font style=&quot;font-size: 18px;&quot;&gt;NAT Gateway&lt;/font&gt;" style="text;html=1;align=center;verticalAlign=middle;resizable=0;points=[];autosize=1;strokeColor=none;fillColor=none;" parent="bfF0iJRP3l3-DIMidtyF-15" vertex="1">
          <mxGeometry x="16" y="166.5" width="130" height="40" as="geometry" />
        </mxCell>
        <mxCell id="bfF0iJRP3l3-DIMidtyF-46" value="" style="rounded=0;arcSize=10;dashed=1;fillColor=none;gradientColor=none;strokeWidth=3;strokeColor=#000033;" parent="1" vertex="1">
          <mxGeometry x="-390" y="-380" width="2400" height="1780" as="geometry" />
        </mxCell>
        <mxCell id="bfF0iJRP3l3-DIMidtyF-45" value="" style="rounded=0;arcSize=10;dashed=1;fillColor=none;gradientColor=none;strokeWidth=3;strokeColor=#000033;" parent="1" vertex="1">
          <mxGeometry x="-210" y="-310.5" width="2060" height="1180" as="geometry" />
        </mxCell>
        <mxCell id="ikV1LDkkVOYunyuP8x4d-17" value="" style="rounded=0;arcSize=10;dashed=1;fillColor=none;gradientColor=none;strokeWidth=3;strokeColor=#666600;" parent="1" vertex="1">
          <mxGeometry x="130" y="-240" width="1640" height="480" as="geometry" />
        </mxCell>
        <mxCell id="bfF0iJRP3l3-DIMidtyF-19" value="Public subnet" style="points=[[0,0],[0.25,0],[0.5,0],[0.75,0],[1,0],[1,0.25],[1,0.5],[1,0.75],[1,1],[0.75,1],[0.5,1],[0.25,1],[0,1],[0,0.75],[0,0.5],[0,0.25]];outlineConnect=0;gradientColor=none;html=1;whiteSpace=wrap;fontSize=12;fontStyle=0;container=1;pointerEvents=0;collapsible=0;recursiveResize=0;shape=mxgraph.aws4.group;grIcon=mxgraph.aws4.group_security_group;grStroke=0;strokeColor=#248814;fillColor=#E9F3E6;verticalAlign=top;align=left;spacingLeft=30;fontColor=#248814;dashed=0;" parent="1" vertex="1">
          <mxGeometry x="184" y="429" width="250" height="309" as="geometry" />
        </mxCell>
        <mxCell id="bfF0iJRP3l3-DIMidtyF-20" value="" style="outlineConnect=0;dashed=0;verticalLabelPosition=bottom;verticalAlign=top;align=center;html=1;shape=mxgraph.aws3.vpc_nat_gateway;fillColor=#F58534;gradientColor=none;" parent="bfF0iJRP3l3-DIMidtyF-19" vertex="1">
          <mxGeometry x="28" y="73.75" width="60" height="59" as="geometry" />
        </mxCell>
        <mxCell id="bfF0iJRP3l3-DIMidtyF-40" value="&lt;font style=&quot;font-size: 18px;&quot;&gt;NAT Gateway&lt;/font&gt;" style="text;html=1;align=center;verticalAlign=middle;resizable=0;points=[];autosize=1;strokeColor=none;fillColor=none;" parent="bfF0iJRP3l3-DIMidtyF-19" vertex="1">
          <mxGeometry x="28" y="139" width="130" height="40" as="geometry" />
        </mxCell>
        <mxCell id="dF6AwYc84KTf_iCbITUC-44" style="edgeStyle=orthogonalEdgeStyle;rounded=0;orthogonalLoop=1;jettySize=auto;html=1;strokeWidth=2;" parent="1" source="dF6AwYc84KTf_iCbITUC-43" edge="1">
          <mxGeometry relative="1" as="geometry">
            <mxPoint x="980" y="-530" as="targetPoint" />
          </mxGeometry>
        </mxCell>
        <mxCell id="dF6AwYc84KTf_iCbITUC-43" value="" style="rounded=0;arcSize=10;dashed=1;fillColor=none;gradientColor=none;strokeWidth=2;" parent="1" vertex="1">
          <mxGeometry x="607.5" y="-1124" width="746" height="430" as="geometry" />
        </mxCell>
        <mxCell id="ikV1LDkkVOYunyuP8x4d-24" value="Private subnet" style="points=[[0,0],[0.25,0],[0.5,0],[0.75,0],[1,0],[1,0.25],[1,0.5],[1,0.75],[1,1],[0.75,1],[0.5,1],[0.25,1],[0,1],[0,0.75],[0,0.5],[0,0.25]];outlineConnect=0;gradientColor=none;html=1;whiteSpace=wrap;fontSize=12;fontStyle=0;container=1;pointerEvents=0;collapsible=0;recursiveResize=0;shape=mxgraph.aws4.group;grIcon=mxgraph.aws4.group_security_group;grStroke=0;strokeColor=#147EBA;fillColor=#E6F2F8;verticalAlign=top;align=left;spacingLeft=30;fontColor=#147EBA;dashed=0;" parent="1" vertex="1">
          <mxGeometry x="480" y="-170" width="1240" height="340" as="geometry" />
        </mxCell>
        <mxCell id="bfF0iJRP3l3-DIMidtyF-14" value="&lt;font style=&quot;font-size: 14px;&quot;&gt;&lt;b&gt;ECS Cluster&lt;/b&gt;&lt;/font&gt;" style="text;html=1;align=center;verticalAlign=middle;resizable=0;points=[];autosize=1;strokeColor=none;fillColor=none;" parent="ikV1LDkkVOYunyuP8x4d-24" vertex="1">
          <mxGeometry x="360" y="5" width="100" height="30" as="geometry" />
        </mxCell>
        <mxCell id="dF6AwYc84KTf_iCbITUC-82" value="" style="endArrow=classic;html=1;rounded=0;strokeWidth=2;strokeColor=#0000FF;" parent="ikV1LDkkVOYunyuP8x4d-24" edge="1">
          <mxGeometry width="50" height="50" relative="1" as="geometry">
            <mxPoint x="-440" y="414.25" as="sourcePoint" />
            <mxPoint x="250" y="152.25" as="targetPoint" />
          </mxGeometry>
        </mxCell>
        <mxCell id="bfF0iJRP3l3-DIMidtyF-30" value="" style="endArrow=classic;html=1;rounded=0;entryX=1;entryY=0.5;entryDx=0;entryDy=0;entryPerimeter=0;strokeWidth=2;strokeColor=#FF8000;" parent="ikV1LDkkVOYunyuP8x4d-24" target="bfF0iJRP3l3-DIMidtyF-16" edge="1">
          <mxGeometry width="50" height="50" relative="1" as="geometry">
            <mxPoint x="230" y="180" as="sourcePoint" />
            <mxPoint x="-180" y="90" as="targetPoint" />
          </mxGeometry>
        </mxCell>
        <mxCell id="ikV1LDkkVOYunyuP8x4d-26" value="Private subnet" style="points=[[0,0],[0.25,0],[0.5,0],[0.75,0],[1,0],[1,0.25],[1,0.5],[1,0.75],[1,1],[0.75,1],[0.5,1],[0.25,1],[0,1],[0,0.75],[0,0.5],[0,0.25]];outlineConnect=0;gradientColor=none;html=1;whiteSpace=wrap;fontSize=12;fontStyle=0;container=1;pointerEvents=0;collapsible=0;recursiveResize=0;shape=mxgraph.aws4.group;grIcon=mxgraph.aws4.group_security_group;grStroke=0;strokeColor=#147EBA;fillColor=#E6F2F8;verticalAlign=top;align=left;spacingLeft=30;fontColor=#147EBA;dashed=0;" parent="1" vertex="1">
          <mxGeometry x="480" y="428" width="1240" height="310" as="geometry" />
        </mxCell>
        <mxCell id="ikV1LDkkVOYunyuP8x4d-78" value="&lt;font style=&quot;font-size: 14px;&quot;&gt;&lt;b&gt;ECS Cluster&lt;/b&gt;&lt;/font&gt;" style="text;html=1;align=center;verticalAlign=middle;resizable=0;points=[];autosize=1;strokeColor=none;fillColor=none;" parent="ikV1LDkkVOYunyuP8x4d-26" vertex="1">
          <mxGeometry x="391.25" y="245" width="100" height="30" as="geometry" />
        </mxCell>
        <mxCell id="bfF0iJRP3l3-DIMidtyF-36" value="" style="endArrow=classic;html=1;rounded=0;strokeWidth=2;strokeColor=#FF8000;" parent="ikV1LDkkVOYunyuP8x4d-26" edge="1">
          <mxGeometry width="50" height="50" relative="1" as="geometry">
            <mxPoint x="612.25" y="156.5" as="sourcePoint" />
            <mxPoint x="-208" y="126.5" as="targetPoint" />
          </mxGeometry>
        </mxCell>
        <mxCell id="ikV1LDkkVOYunyuP8x4d-21" value="" style="rounded=0;arcSize=10;dashed=1;fillColor=none;gradientColor=none;strokeWidth=2;" parent="1" vertex="1">
          <mxGeometry x="640" y="-122" width="670" height="780" as="geometry" />
        </mxCell>
        <mxCell id="dF6AwYc84KTf_iCbITUC-18" style="edgeStyle=orthogonalEdgeStyle;rounded=0;orthogonalLoop=1;jettySize=auto;html=1;entryX=-0.008;entryY=0.27;entryDx=0;entryDy=0;entryPerimeter=0;strokeWidth=2;strokeColor=#006633;" parent="1" source="dF6AwYc84KTf_iCbITUC-7" target="dF6AwYc84KTf_iCbITUC-12" edge="1">
          <mxGeometry relative="1" as="geometry" />
        </mxCell>
        <mxCell id="dF6AwYc84KTf_iCbITUC-7" value="" style="rounded=0;arcSize=10;dashed=1;fillColor=none;gradientColor=none;dashPattern=1 1;strokeWidth=2;fontStyle=1" parent="1" vertex="1">
          <mxGeometry x="1356" y="-79" width="119" height="713" as="geometry" />
        </mxCell>
        <mxCell id="ikV1LDkkVOYunyuP8x4d-34" value="" style="rounded=0;arcSize=10;dashed=1;fillColor=none;gradientColor=none;dashPattern=1 1;strokeWidth=2;" parent="1" vertex="1">
          <mxGeometry x="700" y="-82" width="190" height="720" as="geometry" />
        </mxCell>
        <mxCell id="dF6AwYc84KTf_iCbITUC-17" style="edgeStyle=orthogonalEdgeStyle;rounded=0;orthogonalLoop=1;jettySize=auto;html=1;entryX=0.007;entryY=0.115;entryDx=0;entryDy=0;entryPerimeter=0;strokeColor=#6666FF;strokeWidth=2;" parent="1" source="ikV1LDkkVOYunyuP8x4d-35" target="dF6AwYc84KTf_iCbITUC-9" edge="1">
          <mxGeometry relative="1" as="geometry" />
        </mxCell>
        <mxCell id="ikV1LDkkVOYunyuP8x4d-35" value="" style="rounded=0;arcSize=10;dashed=1;fillColor=none;gradientColor=none;dashPattern=1 1;strokeWidth=2;" parent="1" vertex="1">
          <mxGeometry x="1088" y="-82" width="190" height="720" as="geometry" />
        </mxCell>
        <mxCell id="ikV1LDkkVOYunyuP8x4d-1" value="" style="sketch=0;points=[[0,0,0],[0.25,0,0],[0.5,0,0],[0.75,0,0],[1,0,0],[0,1,0],[0.25,1,0],[0.5,1,0],[0.75,1,0],[1,1,0],[0,0.25,0],[0,0.5,0],[0,0.75,0],[1,0.25,0],[1,0.5,0],[1,0.75,0]];outlineConnect=0;fontColor=#232F3E;gradientColor=#945DF2;gradientDirection=north;fillColor=#5A30B5;strokeColor=#ffffff;dashed=0;verticalLabelPosition=bottom;verticalAlign=top;align=center;html=1;fontSize=12;fontStyle=0;aspect=fixed;shape=mxgraph.aws4.resourceIcon;resIcon=mxgraph.aws4.route_53;" parent="1" vertex="1">
          <mxGeometry x="-490" y="216.12" width="66" height="66" as="geometry" />
        </mxCell>
        <mxCell id="ikV1LDkkVOYunyuP8x4d-4" value="" style="sketch=0;points=[[0,0,0],[0.25,0,0],[0.5,0,0],[0.75,0,0],[1,0,0],[0,1,0],[0.25,1,0],[0.5,1,0],[0.75,1,0],[1,1,0],[0,0.25,0],[0,0.5,0],[0,0.75,0],[1,0.25,0],[1,0.5,0],[1,0.75,0]];outlineConnect=0;fontColor=#232F3E;gradientColor=#F54749;gradientDirection=north;fillColor=#C7131F;strokeColor=#ffffff;dashed=0;verticalLabelPosition=bottom;verticalAlign=top;align=center;html=1;fontSize=12;fontStyle=0;aspect=fixed;shape=mxgraph.aws4.resourceIcon;resIcon=mxgraph.aws4.certificate_manager_3;" parent="1" vertex="1">
          <mxGeometry x="-45" y="428" width="60" height="60" as="geometry" />
        </mxCell>
        <mxCell id="ikV1LDkkVOYunyuP8x4d-5" value="" style="shape=actor;whiteSpace=wrap;html=1;" parent="1" vertex="1">
          <mxGeometry x="-707" y="192.63" width="40" height="60" as="geometry" />
        </mxCell>
        <mxCell id="ikV1LDkkVOYunyuP8x4d-6" value="" style="sketch=0;aspect=fixed;pointerEvents=1;shadow=0;dashed=0;html=1;strokeColor=none;labelPosition=center;verticalLabelPosition=bottom;verticalAlign=top;align=center;fillColor=#00188D;shape=mxgraph.azure.laptop" parent="1" vertex="1">
          <mxGeometry x="-712" y="258.63" width="50" height="30" as="geometry" />
        </mxCell>
        <mxCell id="ikV1LDkkVOYunyuP8x4d-8" value="" style="endArrow=classic;html=1;rounded=0;" parent="1" edge="1">
          <mxGeometry width="50" height="50" relative="1" as="geometry">
            <mxPoint x="-645" y="249.13" as="sourcePoint" />
            <mxPoint x="-535" y="249.63" as="targetPoint" />
          </mxGeometry>
        </mxCell>
        <mxCell id="ikV1LDkkVOYunyuP8x4d-9" value="" style="shape=image;html=1;verticalAlign=top;verticalLabelPosition=bottom;labelBackgroundColor=#ffffff;imageAspect=0;aspect=fixed;image=https://cdn1.iconfinder.com/data/icons/material-core/23/https-128.png" parent="1" vertex="1">
          <mxGeometry x="-645" y="208.63" width="28" height="28" as="geometry" />
        </mxCell>
        <mxCell id="ikV1LDkkVOYunyuP8x4d-11" value="" style="outlineConnect=0;dashed=0;verticalLabelPosition=bottom;verticalAlign=top;align=center;html=1;shape=mxgraph.aws3.virtual_private_cloud;fillColor=#F58534;gradientColor=none;" parent="1" vertex="1">
          <mxGeometry x="-200" y="-300" width="60" height="34" as="geometry" />
        </mxCell>
        <mxCell id="ikV1LDkkVOYunyuP8x4d-15" value="" style="shape=image;verticalLabelPosition=bottom;labelBackgroundColor=default;verticalAlign=top;aspect=fixed;imageAspect=0;image=https://cdn2.iconfinder.com/data/icons/amazon-aws-stencils/100/Non-Service_Specific_copy__AWS_Cloud-512.png;" parent="1" vertex="1">
          <mxGeometry x="70" y="-277" width="64" height="64" as="geometry" />
        </mxCell>
        <mxCell id="ikV1LDkkVOYunyuP8x4d-22" value="" style="sketch=0;points=[[0,0,0],[0.25,0,0],[0.5,0,0],[0.75,0,0],[1,0,0],[0,1,0],[0.25,1,0],[0.5,1,0],[0.75,1,0],[1,1,0],[0,0.25,0],[0,0.5,0],[0,0.75,0],[1,0.25,0],[1,0.5,0],[1,0.75,0]];outlineConnect=0;fontColor=#232F3E;gradientColor=#F78E04;gradientDirection=north;fillColor=#D05C17;strokeColor=#ffffff;dashed=0;verticalLabelPosition=bottom;verticalAlign=top;align=center;html=1;fontSize=12;fontStyle=0;aspect=fixed;shape=mxgraph.aws4.resourceIcon;resIcon=mxgraph.aws4.ecs;" parent="1" vertex="1">
          <mxGeometry x="640" y="-122" width="40" height="40" as="geometry" />
        </mxCell>
        <mxCell id="ikV1LDkkVOYunyuP8x4d-36" value="" style="rounded=0;arcSize=10;dashed=1;fillColor=none;gradientColor=none;dashPattern=1 1;strokeWidth=2;" parent="1" vertex="1">
          <mxGeometry x="710" y="-72" width="170" height="130" as="geometry" />
        </mxCell>
        <mxCell id="ikV1LDkkVOYunyuP8x4d-37" value="" style="sketch=0;points=[[0,0,0],[0.25,0,0],[0.5,0,0],[0.75,0,0],[1,0,0],[0,1,0],[0.25,1,0],[0.5,1,0],[0.75,1,0],[1,1,0],[0,0.25,0],[0,0.5,0],[0,0.75,0],[1,0.25,0],[1,0.5,0],[1,0.75,0]];outlineConnect=0;fontColor=#232F3E;gradientColor=#F78E04;gradientDirection=north;fillColor=#D05C17;strokeColor=#ffffff;dashed=0;verticalLabelPosition=bottom;verticalAlign=top;align=center;html=1;fontSize=12;fontStyle=0;aspect=fixed;shape=mxgraph.aws4.resourceIcon;resIcon=mxgraph.aws4.ec2;" parent="1" vertex="1">
          <mxGeometry x="713" y="-68" width="30" height="30" as="geometry" />
        </mxCell>
        <mxCell id="ikV1LDkkVOYunyuP8x4d-38" value="" style="outlineConnect=0;dashed=0;verticalLabelPosition=bottom;verticalAlign=top;align=center;html=1;shape=mxgraph.aws3.ec2_compute_container;fillColor=#F58534;gradientColor=none;" parent="1" vertex="1">
          <mxGeometry x="759" y="-28" width="60" height="34.5" as="geometry" />
        </mxCell>
        <mxCell id="ikV1LDkkVOYunyuP8x4d-40" value="" style="shape=image;html=1;verticalAlign=top;verticalLabelPosition=bottom;labelBackgroundColor=#ffffff;imageAspect=0;aspect=fixed;image=https://cdn1.iconfinder.com/data/icons/unicons-line-vol-3/24/docker-128.png" parent="1" vertex="1">
          <mxGeometry x="838" y="-72" width="40" height="40" as="geometry" />
        </mxCell>
        <mxCell id="ikV1LDkkVOYunyuP8x4d-41" value="" style="shape=image;verticalLabelPosition=bottom;labelBackgroundColor=default;verticalAlign=top;aspect=fixed;imageAspect=0;image=https://www.skyarch.net/blog/wp-content/uploads/2020/03/2020-03-31_12h57_10-295x230.png;" parent="1" vertex="1">
          <mxGeometry x="839.52" y="28" width="38.48" height="30" as="geometry" />
        </mxCell>
        <mxCell id="bfF0iJRP3l3-DIMidtyF-32" style="edgeStyle=orthogonalEdgeStyle;rounded=0;orthogonalLoop=1;jettySize=auto;html=1;entryX=1;entryY=0.5;entryDx=0;entryDy=0;entryPerimeter=0;strokeWidth=2;strokeColor=#FF8000;" parent="1" source="ikV1LDkkVOYunyuP8x4d-48" target="bfF0iJRP3l3-DIMidtyF-20" edge="1">
          <mxGeometry relative="1" as="geometry" />
        </mxCell>
        <mxCell id="ikV1LDkkVOYunyuP8x4d-48" value="" style="rounded=0;arcSize=10;dashed=1;fillColor=none;gradientColor=none;dashPattern=1 1;strokeWidth=2;" parent="1" vertex="1">
          <mxGeometry x="709" y="466" width="170" height="130" as="geometry" />
        </mxCell>
        <mxCell id="ikV1LDkkVOYunyuP8x4d-49" value="" style="sketch=0;points=[[0,0,0],[0.25,0,0],[0.5,0,0],[0.75,0,0],[1,0,0],[0,1,0],[0.25,1,0],[0.5,1,0],[0.75,1,0],[1,1,0],[0,0.25,0],[0,0.5,0],[0,0.75,0],[1,0.25,0],[1,0.5,0],[1,0.75,0]];outlineConnect=0;fontColor=#232F3E;gradientColor=#F78E04;gradientDirection=north;fillColor=#D05C17;strokeColor=#ffffff;dashed=0;verticalLabelPosition=bottom;verticalAlign=top;align=center;html=1;fontSize=12;fontStyle=0;aspect=fixed;shape=mxgraph.aws4.resourceIcon;resIcon=mxgraph.aws4.ec2;" parent="1" vertex="1">
          <mxGeometry x="712" y="470" width="30" height="30" as="geometry" />
        </mxCell>
        <mxCell id="ikV1LDkkVOYunyuP8x4d-50" value="" style="outlineConnect=0;dashed=0;verticalLabelPosition=bottom;verticalAlign=top;align=center;html=1;shape=mxgraph.aws3.ec2_compute_container;fillColor=#F58534;gradientColor=none;" parent="1" vertex="1">
          <mxGeometry x="760" y="496" width="60" height="34.5" as="geometry" />
        </mxCell>
        <mxCell id="ikV1LDkkVOYunyuP8x4d-52" value="" style="shape=image;html=1;verticalAlign=top;verticalLabelPosition=bottom;labelBackgroundColor=#ffffff;imageAspect=0;aspect=fixed;image=https://cdn1.iconfinder.com/data/icons/unicons-line-vol-3/24/docker-128.png" parent="1" vertex="1">
          <mxGeometry x="837" y="466" width="40" height="40" as="geometry" />
        </mxCell>
        <mxCell id="ikV1LDkkVOYunyuP8x4d-53" value="" style="shape=image;verticalLabelPosition=bottom;labelBackgroundColor=default;verticalAlign=top;aspect=fixed;imageAspect=0;image=https://www.skyarch.net/blog/wp-content/uploads/2020/03/2020-03-31_12h57_10-295x230.png;" parent="1" vertex="1">
          <mxGeometry x="838.52" y="566" width="38.48" height="30" as="geometry" />
        </mxCell>
        <mxCell id="ikV1LDkkVOYunyuP8x4d-60" value="" style="rounded=0;arcSize=10;dashed=1;fillColor=none;gradientColor=none;dashPattern=1 1;strokeWidth=2;" parent="1" vertex="1">
          <mxGeometry x="1098" y="-68" width="170" height="130" as="geometry" />
        </mxCell>
        <mxCell id="ikV1LDkkVOYunyuP8x4d-61" value="" style="sketch=0;points=[[0,0,0],[0.25,0,0],[0.5,0,0],[0.75,0,0],[1,0,0],[0,1,0],[0.25,1,0],[0.5,1,0],[0.75,1,0],[1,1,0],[0,0.25,0],[0,0.5,0],[0,0.75,0],[1,0.25,0],[1,0.5,0],[1,0.75,0]];outlineConnect=0;fontColor=#232F3E;gradientColor=#F78E04;gradientDirection=north;fillColor=#D05C17;strokeColor=#ffffff;dashed=0;verticalLabelPosition=bottom;verticalAlign=top;align=center;html=1;fontSize=12;fontStyle=0;aspect=fixed;shape=mxgraph.aws4.resourceIcon;resIcon=mxgraph.aws4.ec2;" parent="1" vertex="1">
          <mxGeometry x="1101" y="-64" width="30" height="30" as="geometry" />
        </mxCell>
        <mxCell id="ikV1LDkkVOYunyuP8x4d-62" value="" style="outlineConnect=0;dashed=0;verticalLabelPosition=bottom;verticalAlign=top;align=center;html=1;shape=mxgraph.aws3.ec2_compute_container;fillColor=#F58534;gradientColor=none;" parent="1" vertex="1">
          <mxGeometry x="1149" y="-59.25" width="60" height="34.5" as="geometry" />
        </mxCell>
        <mxCell id="ikV1LDkkVOYunyuP8x4d-63" value="" style="outlineConnect=0;dashed=0;verticalLabelPosition=bottom;verticalAlign=top;align=center;html=1;shape=mxgraph.aws3.ec2_compute_container;fillColor=#F58534;gradientColor=none;" parent="1" vertex="1">
          <mxGeometry x="1148" y="2" width="60" height="34.5" as="geometry" />
        </mxCell>
        <mxCell id="ikV1LDkkVOYunyuP8x4d-64" value="" style="shape=image;html=1;verticalAlign=top;verticalLabelPosition=bottom;labelBackgroundColor=#ffffff;imageAspect=0;aspect=fixed;image=https://cdn1.iconfinder.com/data/icons/unicons-line-vol-3/24/docker-128.png" parent="1" vertex="1">
          <mxGeometry x="1226" y="-68" width="40" height="40" as="geometry" />
        </mxCell>
        <mxCell id="ikV1LDkkVOYunyuP8x4d-65" value="" style="shape=image;verticalLabelPosition=bottom;labelBackgroundColor=default;verticalAlign=top;aspect=fixed;imageAspect=0;image=https://www.skyarch.net/blog/wp-content/uploads/2020/03/2020-03-31_12h57_10-295x230.png;" parent="1" vertex="1">
          <mxGeometry x="1227.52" y="32" width="38.48" height="30" as="geometry" />
        </mxCell>
        <mxCell id="ikV1LDkkVOYunyuP8x4d-66" value="" style="rounded=0;arcSize=10;dashed=1;fillColor=none;gradientColor=none;dashPattern=1 1;strokeWidth=2;" parent="1" vertex="1">
          <mxGeometry x="1097" y="457" width="170" height="130" as="geometry" />
        </mxCell>
        <mxCell id="ikV1LDkkVOYunyuP8x4d-67" value="" style="sketch=0;points=[[0,0,0],[0.25,0,0],[0.5,0,0],[0.75,0,0],[1,0,0],[0,1,0],[0.25,1,0],[0.5,1,0],[0.75,1,0],[1,1,0],[0,0.25,0],[0,0.5,0],[0,0.75,0],[1,0.25,0],[1,0.5,0],[1,0.75,0]];outlineConnect=0;fontColor=#232F3E;gradientColor=#F78E04;gradientDirection=north;fillColor=#D05C17;strokeColor=#ffffff;dashed=0;verticalLabelPosition=bottom;verticalAlign=top;align=center;html=1;fontSize=12;fontStyle=0;aspect=fixed;shape=mxgraph.aws4.resourceIcon;resIcon=mxgraph.aws4.ec2;" parent="1" vertex="1">
          <mxGeometry x="1100" y="461" width="30" height="30" as="geometry" />
        </mxCell>
        <mxCell id="ikV1LDkkVOYunyuP8x4d-68" value="" style="outlineConnect=0;dashed=0;verticalLabelPosition=bottom;verticalAlign=top;align=center;html=1;shape=mxgraph.aws3.ec2_compute_container;fillColor=#F58534;gradientColor=none;" parent="1" vertex="1">
          <mxGeometry x="1148" y="460.75" width="60" height="34.5" as="geometry" />
        </mxCell>
        <mxCell id="ikV1LDkkVOYunyuP8x4d-69" value="" style="outlineConnect=0;dashed=0;verticalLabelPosition=bottom;verticalAlign=top;align=center;html=1;shape=mxgraph.aws3.ec2_compute_container;fillColor=#F58534;gradientColor=none;" parent="1" vertex="1">
          <mxGeometry x="1147" y="522" width="60" height="34.5" as="geometry" />
        </mxCell>
        <mxCell id="ikV1LDkkVOYunyuP8x4d-70" value="" style="shape=image;html=1;verticalAlign=top;verticalLabelPosition=bottom;labelBackgroundColor=#ffffff;imageAspect=0;aspect=fixed;image=https://cdn1.iconfinder.com/data/icons/unicons-line-vol-3/24/docker-128.png" parent="1" vertex="1">
          <mxGeometry x="1225" y="457" width="40" height="40" as="geometry" />
        </mxCell>
        <mxCell id="ikV1LDkkVOYunyuP8x4d-71" value="" style="shape=image;verticalLabelPosition=bottom;labelBackgroundColor=default;verticalAlign=top;aspect=fixed;imageAspect=0;image=https://www.skyarch.net/blog/wp-content/uploads/2020/03/2020-03-31_12h57_10-295x230.png;" parent="1" vertex="1">
          <mxGeometry x="1226.52" y="557" width="38.48" height="30" as="geometry" />
        </mxCell>
        <mxCell id="ikV1LDkkVOYunyuP8x4d-77" value="&lt;font style=&quot;font-size: 18px;&quot;&gt;Client/User/Browser&lt;/font&gt;" style="text;html=1;align=center;verticalAlign=middle;resizable=0;points=[];autosize=1;strokeColor=none;fillColor=none;" parent="1" vertex="1">
          <mxGeometry x="-777" y="304.38" width="180" height="40" as="geometry" />
        </mxCell>
        <mxCell id="ikV1LDkkVOYunyuP8x4d-79" value="&lt;font style=&quot;font-size: 14px;&quot;&gt;Frontend Service&lt;/font&gt;" style="text;html=1;align=center;verticalAlign=middle;resizable=0;points=[];autosize=1;strokeColor=none;fillColor=none;" parent="1" vertex="1">
          <mxGeometry x="725" y="608" width="130" height="30" as="geometry" />
        </mxCell>
        <mxCell id="ikV1LDkkVOYunyuP8x4d-80" value="&lt;font style=&quot;font-size: 14px;&quot;&gt;Backend Service&lt;/font&gt;" style="text;html=1;align=center;verticalAlign=middle;resizable=0;points=[];autosize=1;strokeColor=none;fillColor=none;" parent="1" vertex="1">
          <mxGeometry x="1109" y="608" width="130" height="30" as="geometry" />
        </mxCell>
        <mxCell id="ikV1LDkkVOYunyuP8x4d-81" value="&lt;font style=&quot;font-size: 14px;&quot;&gt;Backend Task&lt;/font&gt;" style="text;html=1;align=center;verticalAlign=middle;resizable=0;points=[];autosize=1;strokeColor=none;fillColor=none;" parent="1" vertex="1">
          <mxGeometry x="1126" y="-27" width="110" height="30" as="geometry" />
        </mxCell>
        <mxCell id="ikV1LDkkVOYunyuP8x4d-82" value="&lt;font style=&quot;font-size: 14px;&quot;&gt;Backend Task&lt;/font&gt;" style="text;html=1;align=center;verticalAlign=middle;resizable=0;points=[];autosize=1;strokeColor=none;fillColor=none;" parent="1" vertex="1">
          <mxGeometry x="1119" y="36.5" width="110" height="30" as="geometry" />
        </mxCell>
        <mxCell id="ikV1LDkkVOYunyuP8x4d-85" value="&lt;font style=&quot;font-size: 14px;&quot;&gt;Backend Task&lt;/font&gt;" style="text;html=1;align=center;verticalAlign=middle;resizable=0;points=[];autosize=1;strokeColor=none;fillColor=none;" parent="1" vertex="1">
          <mxGeometry x="1131" y="496.25" width="110" height="30" as="geometry" />
        </mxCell>
        <mxCell id="ikV1LDkkVOYunyuP8x4d-86" value="&lt;font style=&quot;font-size: 14px;&quot;&gt;Backend Task&lt;/font&gt;" style="text;html=1;align=center;verticalAlign=middle;resizable=0;points=[];autosize=1;strokeColor=none;fillColor=none;" parent="1" vertex="1">
          <mxGeometry x="1126" y="558" width="110" height="30" as="geometry" />
        </mxCell>
        <mxCell id="ikV1LDkkVOYunyuP8x4d-87" value="&lt;font style=&quot;font-size: 14px;&quot;&gt;Frontend Task&lt;/font&gt;" style="text;html=1;align=center;verticalAlign=middle;resizable=0;points=[];autosize=1;strokeColor=none;fillColor=none;" parent="1" vertex="1">
          <mxGeometry x="739" y="6.5" width="110" height="30" as="geometry" />
        </mxCell>
        <mxCell id="ikV1LDkkVOYunyuP8x4d-89" value="&lt;font style=&quot;font-size: 14px;&quot;&gt;Frontend Task&lt;/font&gt;" style="text;html=1;align=center;verticalAlign=middle;resizable=0;points=[];autosize=1;strokeColor=none;fillColor=none;" parent="1" vertex="1">
          <mxGeometry x="734" y="543" width="110" height="30" as="geometry" />
        </mxCell>
        <mxCell id="ikV1LDkkVOYunyuP8x4d-91" value="&lt;font style=&quot;font-size: 18px;&quot;&gt;HTTPS&lt;/font&gt;" style="text;html=1;align=center;verticalAlign=middle;resizable=0;points=[];autosize=1;strokeColor=none;fillColor=none;" parent="1" vertex="1">
          <mxGeometry x="-631" y="203" width="80" height="40" as="geometry" />
        </mxCell>
        <mxCell id="ikV1LDkkVOYunyuP8x4d-92" value="&lt;font style=&quot;font-size: 18px;&quot;&gt;Route53&lt;/font&gt;" style="text;html=1;align=center;verticalAlign=middle;resizable=0;points=[];autosize=1;strokeColor=none;fillColor=none;" parent="1" vertex="1">
          <mxGeometry x="-500" y="292.5" width="90" height="40" as="geometry" />
        </mxCell>
        <mxCell id="ikV1LDkkVOYunyuP8x4d-103" value="&lt;font style=&quot;font-size: 14px;&quot;&gt;Frontend Service&lt;/font&gt;" style="text;html=1;align=center;verticalAlign=middle;resizable=0;points=[];autosize=1;strokeColor=none;fillColor=none;" parent="1" vertex="1">
          <mxGeometry x="742" y="-112" width="130" height="30" as="geometry" />
        </mxCell>
        <mxCell id="ikV1LDkkVOYunyuP8x4d-104" value="&lt;font style=&quot;font-size: 14px;&quot;&gt;Backend Service&lt;/font&gt;" style="text;html=1;align=center;verticalAlign=middle;resizable=0;points=[];autosize=1;strokeColor=none;fillColor=none;" parent="1" vertex="1">
          <mxGeometry x="1115" y="-112" width="130" height="30" as="geometry" />
        </mxCell>
        <mxCell id="dF6AwYc84KTf_iCbITUC-3" value="" style="outlineConnect=0;dashed=0;verticalLabelPosition=bottom;verticalAlign=top;align=center;html=1;shape=mxgraph.aws3.elasticache;fillColor=#2E73B8;gradientColor=none;" parent="1" vertex="1">
          <mxGeometry x="1382" y="-62" width="60" height="71" as="geometry" />
        </mxCell>
        <mxCell id="dF6AwYc84KTf_iCbITUC-4" value="" style="outlineConnect=0;dashed=0;verticalLabelPosition=bottom;verticalAlign=top;align=center;html=1;shape=mxgraph.aws3.elasticache;fillColor=#2E73B8;gradientColor=none;" parent="1" vertex="1">
          <mxGeometry x="1378" y="448" width="60" height="73.75" as="geometry" />
        </mxCell>
        <mxCell id="dF6AwYc84KTf_iCbITUC-5" value="" style="sketch=0;points=[[0,0,0],[0.25,0,0],[0.5,0,0],[0.75,0,0],[1,0,0],[0,1,0],[0.25,1,0],[0.5,1,0],[0.75,1,0],[1,1,0],[0,0.25,0],[0,0.5,0],[0,0.75,0],[1,0.25,0],[1,0.5,0],[1,0.75,0]];outlineConnect=0;fontColor=#232F3E;gradientColor=#4D72F3;gradientDirection=north;fillColor=#3334B9;strokeColor=#ffffff;dashed=0;verticalLabelPosition=bottom;verticalAlign=top;align=center;html=1;fontSize=12;fontStyle=0;aspect=fixed;shape=mxgraph.aws4.resourceIcon;resIcon=mxgraph.aws4.rds;" parent="1" vertex="1">
          <mxGeometry x="1560" y="-62" width="68" height="68" as="geometry" />
        </mxCell>
        <mxCell id="dF6AwYc84KTf_iCbITUC-6" value="" style="sketch=0;points=[[0,0,0],[0.25,0,0],[0.5,0,0],[0.75,0,0],[1,0,0],[0,1,0],[0.25,1,0],[0.5,1,0],[0.75,1,0],[1,1,0],[0,0.25,0],[0,0.5,0],[0,0.75,0],[1,0.25,0],[1,0.5,0],[1,0.75,0]];outlineConnect=0;fontColor=#232F3E;gradientColor=#4D72F3;gradientDirection=north;fillColor=#3334B9;strokeColor=#ffffff;dashed=0;verticalLabelPosition=bottom;verticalAlign=top;align=center;html=1;fontSize=12;fontStyle=0;aspect=fixed;shape=mxgraph.aws4.resourceIcon;resIcon=mxgraph.aws4.rds;" parent="1" vertex="1">
          <mxGeometry x="1570" y="459" width="68" height="68" as="geometry" />
        </mxCell>
        <mxCell id="dF6AwYc84KTf_iCbITUC-8" value="" style="rounded=0;arcSize=10;dashed=1;fillColor=none;gradientColor=none;dashPattern=1 1;strokeWidth=2;" parent="1" vertex="1">
          <mxGeometry x="1547" y="-75" width="119" height="709" as="geometry" />
        </mxCell>
        <mxCell id="dF6AwYc84KTf_iCbITUC-9" value="&lt;font style=&quot;font-size: 14px;&quot;&gt;Elasticcache&lt;br&gt;Redis Primary&lt;br&gt;&lt;/font&gt;" style="text;html=1;align=center;verticalAlign=middle;resizable=0;points=[];autosize=1;strokeColor=none;fillColor=none;" parent="1" vertex="1">
          <mxGeometry x="1360.5" y="22" width="110" height="50" as="geometry" />
        </mxCell>
        <mxCell id="dF6AwYc84KTf_iCbITUC-10" value="&lt;font style=&quot;font-size: 14px;&quot;&gt;Elasticcache&lt;br&gt;Secondary&lt;br&gt;&lt;/font&gt;" style="text;html=1;align=center;verticalAlign=middle;resizable=0;points=[];autosize=1;strokeColor=none;fillColor=none;" parent="1" vertex="1">
          <mxGeometry x="1365.5" y="526.25" width="100" height="50" as="geometry" />
        </mxCell>
        <mxCell id="dF6AwYc84KTf_iCbITUC-12" value="&lt;font style=&quot;font-size: 14px;&quot;&gt;RDS Aurora&lt;br&gt;Master&lt;br&gt;&lt;/font&gt;" style="text;html=1;align=center;verticalAlign=middle;resizable=0;points=[];autosize=1;strokeColor=none;fillColor=none;" parent="1" vertex="1">
          <mxGeometry x="1552" y="18" width="100" height="50" as="geometry" />
        </mxCell>
        <mxCell id="dF6AwYc84KTf_iCbITUC-13" value="&lt;font style=&quot;font-size: 14px;&quot;&gt;RDS Aurora&lt;br&gt;Read Replica&lt;br&gt;&lt;/font&gt;" style="text;html=1;align=center;verticalAlign=middle;resizable=0;points=[];autosize=1;strokeColor=none;fillColor=none;" parent="1" vertex="1">
          <mxGeometry x="1555" y="530.5" width="110" height="50" as="geometry" />
        </mxCell>
        <mxCell id="dF6AwYc84KTf_iCbITUC-29" value="&lt;font style=&quot;font-size: 18px;&quot;&gt;&lt;b&gt;AWS Region&lt;/b&gt;&lt;/font&gt;" style="text;html=1;align=center;verticalAlign=middle;resizable=0;points=[];autosize=1;strokeColor=none;fillColor=none;" parent="1" vertex="1">
          <mxGeometry x="-330" y="-370" width="130" height="40" as="geometry" />
        </mxCell>
        <mxCell id="dF6AwYc84KTf_iCbITUC-33" style="edgeStyle=orthogonalEdgeStyle;rounded=0;orthogonalLoop=1;jettySize=auto;html=1;entryX=0.5;entryY=0;entryDx=0;entryDy=0;entryPerimeter=0;strokeWidth=3;strokeColor=#000000;" parent="1" target="ikV1LDkkVOYunyuP8x4d-38" edge="1">
          <mxGeometry relative="1" as="geometry">
            <mxPoint x="990" y="-530" as="sourcePoint" />
          </mxGeometry>
        </mxCell>
        <mxCell id="dF6AwYc84KTf_iCbITUC-34" style="edgeStyle=orthogonalEdgeStyle;rounded=0;orthogonalLoop=1;jettySize=auto;html=1;strokeWidth=3;strokeColor=#333300;" parent="1" target="ikV1LDkkVOYunyuP8x4d-62" edge="1">
          <mxGeometry relative="1" as="geometry">
            <mxPoint x="990" y="-530" as="sourcePoint" />
          </mxGeometry>
        </mxCell>
        <mxCell id="dF6AwYc84KTf_iCbITUC-38" style="edgeStyle=orthogonalEdgeStyle;rounded=0;orthogonalLoop=1;jettySize=auto;html=1;entryX=0.5;entryY=0;entryDx=0;entryDy=0;entryPerimeter=0;" parent="1" source="dF6AwYc84KTf_iCbITUC-35" target="dF6AwYc84KTf_iCbITUC-36" edge="1">
          <mxGeometry relative="1" as="geometry" />
        </mxCell>
        <mxCell id="dF6AwYc84KTf_iCbITUC-35" value="" style="outlineConnect=0;dashed=0;verticalLabelPosition=bottom;verticalAlign=top;align=center;html=1;shape=mxgraph.aws3.codecommit;fillColor=#759C3E;gradientColor=none;" parent="1" vertex="1">
          <mxGeometry x="939.75" y="-1104" width="68.25" height="78" as="geometry" />
        </mxCell>
        <mxCell id="dF6AwYc84KTf_iCbITUC-39" style="edgeStyle=orthogonalEdgeStyle;rounded=0;orthogonalLoop=1;jettySize=auto;html=1;entryX=0.5;entryY=0;entryDx=0;entryDy=0;entryPerimeter=0;" parent="1" source="dF6AwYc84KTf_iCbITUC-36" target="dF6AwYc84KTf_iCbITUC-37" edge="1">
          <mxGeometry relative="1" as="geometry" />
        </mxCell>
        <mxCell id="dF6AwYc84KTf_iCbITUC-36" value="" style="outlineConnect=0;dashed=0;verticalLabelPosition=bottom;verticalAlign=top;align=center;html=1;shape=mxgraph.aws3.codebuild;fillColor=#759C3E;gradientColor=none;" parent="1" vertex="1">
          <mxGeometry x="941.25" y="-978" width="66.75" height="78" as="geometry" />
        </mxCell>
        <mxCell id="dF6AwYc84KTf_iCbITUC-37" value="" style="outlineConnect=0;dashed=0;verticalLabelPosition=bottom;verticalAlign=top;align=center;html=1;shape=mxgraph.aws3.codedeploy;fillColor=#759C3E;gradientColor=none;" parent="1" vertex="1">
          <mxGeometry x="943.5" y="-802" width="62.5" height="80" as="geometry" />
        </mxCell>
        <mxCell id="dF6AwYc84KTf_iCbITUC-40" value="" style="outlineConnect=0;dashed=0;verticalLabelPosition=bottom;verticalAlign=top;align=center;html=1;shape=mxgraph.aws3.codepipeline;fillColor=#759C3E;gradientColor=none;" parent="1" vertex="1">
          <mxGeometry x="1284.5" y="-1119.5" width="60.5" height="71" as="geometry" />
        </mxCell>
        <mxCell id="dF6AwYc84KTf_iCbITUC-45" value="&lt;font style=&quot;font-size: 18px;&quot;&gt;CodePipeline&lt;/font&gt;" style="text;html=1;align=center;verticalAlign=middle;resizable=0;points=[];autosize=1;strokeColor=none;fillColor=none;" parent="1" vertex="1">
          <mxGeometry x="1230.5" y="-1048.5" width="130" height="40" as="geometry" />
        </mxCell>
        <mxCell id="dF6AwYc84KTf_iCbITUC-46" value="&lt;font style=&quot;font-size: 18px;&quot;&gt;Code Commit&lt;/font&gt;" style="text;html=1;align=center;verticalAlign=middle;resizable=0;points=[];autosize=1;strokeColor=none;fillColor=none;" parent="1" vertex="1">
          <mxGeometry x="983" y="-1031" width="130" height="40" as="geometry" />
        </mxCell>
        <mxCell id="dF6AwYc84KTf_iCbITUC-47" value="&lt;font style=&quot;font-size: 18px;&quot;&gt;Code Build&lt;/font&gt;" style="text;html=1;align=center;verticalAlign=middle;resizable=0;points=[];autosize=1;strokeColor=none;fillColor=none;" parent="1" vertex="1">
          <mxGeometry x="980" y="-887.5" width="110" height="40" as="geometry" />
        </mxCell>
        <mxCell id="dF6AwYc84KTf_iCbITUC-48" value="&lt;font style=&quot;font-size: 18px;&quot;&gt;Code Deploy&lt;/font&gt;" style="text;html=1;align=center;verticalAlign=middle;resizable=0;points=[];autosize=1;strokeColor=none;fillColor=none;" parent="1" vertex="1">
          <mxGeometry x="816.5" y="-742" width="130" height="40" as="geometry" />
        </mxCell>
        <mxCell id="dF6AwYc84KTf_iCbITUC-50" value="&lt;font style=&quot;font-size: 20px;&quot;&gt;Frontend Repo&lt;/font&gt;" style="text;html=1;align=center;verticalAlign=middle;resizable=0;points=[];autosize=1;strokeColor=none;fillColor=none;" parent="1" vertex="1">
          <mxGeometry x="745" y="-1115" width="160" height="40" as="geometry" />
        </mxCell>
        <mxCell id="dF6AwYc84KTf_iCbITUC-52" value="&lt;font style=&quot;font-size: 20px;&quot;&gt;Backend Repo&lt;/font&gt;" style="text;html=1;align=center;verticalAlign=middle;resizable=0;points=[];autosize=1;strokeColor=none;fillColor=none;" parent="1" vertex="1">
          <mxGeometry x="748.77" y="-1071" width="150" height="40" as="geometry" />
        </mxCell>
        <mxCell id="dF6AwYc84KTf_iCbITUC-54" value="&lt;font style=&quot;font-size: 18px;&quot;&gt;Branches: &lt;br&gt;feature_branch, develop, qa, prod&lt;/font&gt;" style="text;html=1;align=left;verticalAlign=middle;resizable=0;points=[];autosize=1;strokeColor=none;fillColor=none;" parent="1" vertex="1">
          <mxGeometry x="664" y="-1038" width="290" height="60" as="geometry" />
        </mxCell>
        <mxCell id="dF6AwYc84KTf_iCbITUC-55" value="&lt;font style=&quot;font-size: 18px;&quot;&gt;ECR&lt;/font&gt;" style="text;html=1;align=center;verticalAlign=middle;resizable=0;points=[];autosize=1;strokeColor=none;fillColor=none;" parent="1" vertex="1">
          <mxGeometry x="1215" y="-895" width="60" height="40" as="geometry" />
        </mxCell>
        <mxCell id="dF6AwYc84KTf_iCbITUC-57" value="&lt;font style=&quot;font-size: 18px;&quot;&gt;ECR repos: &lt;br&gt;develop ==&amp;gt; DEV ECR &lt;br&gt;qa ==&amp;gt; QA ECR&amp;nbsp; &lt;br&gt;prod ==&amp;gt; PROD ECR&lt;/font&gt;" style="text;html=1;align=left;verticalAlign=middle;resizable=0;points=[];autosize=1;strokeColor=none;fillColor=none;" parent="1" vertex="1">
          <mxGeometry x="1130" y="-855" width="210" height="100" as="geometry" />
        </mxCell>
        <mxCell id="dF6AwYc84KTf_iCbITUC-76" value="&lt;font style=&quot;font-size: 18px;&quot;&gt;CloudWatch Alarms&lt;/font&gt;" style="text;html=1;align=center;verticalAlign=middle;resizable=0;points=[];autosize=1;strokeColor=none;fillColor=none;" parent="1" vertex="1">
          <mxGeometry x="960" y="1082" width="180" height="40" as="geometry" />
        </mxCell>
        <mxCell id="dF6AwYc84KTf_iCbITUC-77" value="&lt;font style=&quot;font-size: 18px;&quot;&gt;SNS&lt;/font&gt;" style="text;html=1;align=center;verticalAlign=middle;resizable=0;points=[];autosize=1;strokeColor=none;fillColor=none;" parent="1" vertex="1">
          <mxGeometry x="1215.76" y="1203.25" width="60" height="40" as="geometry" />
        </mxCell>
        <mxCell id="dF6AwYc84KTf_iCbITUC-85" value="&lt;b&gt;&lt;font style=&quot;font-size: 18px;&quot;&gt;Frontend/Backend Tasks&lt;/font&gt;&lt;/b&gt;" style="rounded=0;whiteSpace=wrap;html=1;fillColor=#d5e8d4;strokeColor=#82b366;" parent="1" vertex="1">
          <mxGeometry x="174" y="1192" width="220" height="40" as="geometry" />
        </mxCell>
        <mxCell id="dF6AwYc84KTf_iCbITUC-86" value="&lt;b&gt;&lt;font style=&quot;font-size: 18px;&quot;&gt;Frontend/Backend ASG&lt;/font&gt;&lt;/b&gt;" style="rounded=0;whiteSpace=wrap;html=1;fillColor=#f8cecc;strokeColor=#b85450;" parent="1" vertex="1">
          <mxGeometry x="181.5" y="1328" width="220" height="40" as="geometry" />
        </mxCell>
        <mxCell id="dF6AwYc84KTf_iCbITUC-89" value="&lt;font style=&quot;font-size: 18px;&quot;&gt;ASG metrics&lt;/font&gt;" style="text;html=1;align=center;verticalAlign=middle;resizable=0;points=[];autosize=1;strokeColor=none;fillColor=none;" parent="1" vertex="1">
          <mxGeometry x="249" y="1282" width="120" height="40" as="geometry" />
        </mxCell>
        <mxCell id="bfF0iJRP3l3-DIMidtyF-7" value="" style="sketch=0;outlineConnect=0;fontColor=#232F3E;gradientColor=none;fillColor=#BF0816;strokeColor=none;dashed=0;verticalLabelPosition=bottom;verticalAlign=top;align=center;html=1;fontSize=12;fontStyle=0;aspect=fixed;pointerEvents=1;shape=mxgraph.aws4.role;" parent="1" vertex="1">
          <mxGeometry x="1193.09" y="-1118" width="60.27" height="34" as="geometry" />
        </mxCell>
        <mxCell id="bfF0iJRP3l3-DIMidtyF-8" value="&lt;font style=&quot;font-size: 20px;&quot;&gt;IAM&lt;/font&gt;" style="text;html=1;align=center;verticalAlign=middle;resizable=0;points=[];autosize=1;strokeColor=none;fillColor=none;" parent="1" vertex="1">
          <mxGeometry x="462" y="1660" width="60" height="40" as="geometry" />
        </mxCell>
        <mxCell id="bfF0iJRP3l3-DIMidtyF-9" value="&lt;font style=&quot;font-size: 14px;&quot;&gt;IAM Role&lt;/font&gt;" style="text;html=1;align=center;verticalAlign=middle;resizable=0;points=[];autosize=1;strokeColor=none;fillColor=none;" parent="1" vertex="1">
          <mxGeometry x="1173.36" y="-1075" width="80" height="30" as="geometry" />
        </mxCell>
        <mxCell id="bfF0iJRP3l3-DIMidtyF-10" value="" style="sketch=0;outlineConnect=0;fontColor=#232F3E;gradientColor=none;fillColor=#BF0816;strokeColor=none;dashed=0;verticalLabelPosition=bottom;verticalAlign=top;align=center;html=1;fontSize=12;fontStyle=0;aspect=fixed;pointerEvents=1;shape=mxgraph.aws4.role;" parent="1" vertex="1">
          <mxGeometry x="880" y="-110" width="49.64" height="28" as="geometry" />
        </mxCell>
        <mxCell id="bfF0iJRP3l3-DIMidtyF-11" value="" style="sketch=0;outlineConnect=0;fontColor=#232F3E;gradientColor=none;fillColor=#BF0816;strokeColor=none;dashed=0;verticalLabelPosition=bottom;verticalAlign=top;align=center;html=1;fontSize=12;fontStyle=0;aspect=fixed;pointerEvents=1;shape=mxgraph.aws4.role;" parent="1" vertex="1">
          <mxGeometry x="1253.3600000000001" y="-111" width="49.64" height="28" as="geometry" />
        </mxCell>
        <mxCell id="dF6AwYc84KTf_iCbITUC-83" value="" style="endArrow=classic;html=1;rounded=0;" parent="1" edge="1">
          <mxGeometry width="50" height="50" relative="1" as="geometry">
            <mxPoint x="-410" y="248.13" as="sourcePoint" />
            <mxPoint x="-60" y="248.01" as="targetPoint" />
          </mxGeometry>
        </mxCell>
        <mxCell id="dF6AwYc84KTf_iCbITUC-67" style="edgeStyle=orthogonalEdgeStyle;rounded=0;orthogonalLoop=1;jettySize=auto;html=1;strokeWidth=3;strokeColor=#3333FF;" parent="1" source="dF6AwYc84KTf_iCbITUC-59" target="dF6AwYc84KTf_iCbITUC-60" edge="1">
          <mxGeometry relative="1" as="geometry">
            <mxPoint x="1190" y="1126.25" as="targetPoint" />
            <Array as="points">
              <mxPoint x="933" y="1156.25" />
            </Array>
          </mxGeometry>
        </mxCell>
        <mxCell id="dF6AwYc84KTf_iCbITUC-59" value="" style="sketch=0;outlineConnect=0;fontColor=#232F3E;gradientColor=none;fillColor=#B0084D;strokeColor=none;dashed=0;verticalLabelPosition=bottom;verticalAlign=top;align=center;html=1;fontSize=12;fontStyle=0;aspect=fixed;pointerEvents=1;shape=mxgraph.aws4.alarm;" parent="1" vertex="1">
          <mxGeometry x="901" y="966.25" width="106" height="106" as="geometry" />
        </mxCell>
        <mxCell id="dF6AwYc84KTf_iCbITUC-74" style="edgeStyle=orthogonalEdgeStyle;rounded=0;orthogonalLoop=1;jettySize=auto;html=1;" parent="1" source="dF6AwYc84KTf_iCbITUC-60" target="dF6AwYc84KTf_iCbITUC-62" edge="1">
          <mxGeometry relative="1" as="geometry" />
        </mxCell>
        <mxCell id="_E0HPo_hIq8KFmw8rhUf-10" style="edgeStyle=orthogonalEdgeStyle;rounded=0;orthogonalLoop=1;jettySize=auto;html=1;" parent="1" source="dF6AwYc84KTf_iCbITUC-60" target="_E0HPo_hIq8KFmw8rhUf-9" edge="1">
          <mxGeometry relative="1" as="geometry" />
        </mxCell>
        <mxCell id="dF6AwYc84KTf_iCbITUC-60" value="" style="sketch=0;points=[[0,0,0],[0.25,0,0],[0.5,0,0],[0.75,0,0],[1,0,0],[0,1,0],[0.25,1,0],[0.5,1,0],[0.75,1,0],[1,1,0],[0,0.25,0],[0,0.5,0],[0,0.75,0],[1,0.25,0],[1,0.5,0],[1,0.75,0]];outlineConnect=0;fontColor=#232F3E;gradientColor=#FF4F8B;gradientDirection=north;fillColor=#BC1356;strokeColor=#ffffff;dashed=0;verticalLabelPosition=bottom;verticalAlign=top;align=center;html=1;fontSize=12;fontStyle=0;aspect=fixed;shape=mxgraph.aws4.resourceIcon;resIcon=mxgraph.aws4.sns;" parent="1" vertex="1">
          <mxGeometry x="1200" y="1099.25" width="104" height="104" as="geometry" />
        </mxCell>
        <mxCell id="dF6AwYc84KTf_iCbITUC-62" value="" style="dashed=0;outlineConnect=0;html=1;align=center;labelPosition=center;verticalLabelPosition=bottom;verticalAlign=top;shape=mxgraph.webicons.sms;fillColor=#86D466;gradientColor=#42B418" parent="1" vertex="1">
          <mxGeometry x="1661" y="1190" width="69" height="66.25" as="geometry" />
        </mxCell>
        <mxCell id="dF6AwYc84KTf_iCbITUC-58" value="" style="sketch=0;points=[[0,0,0],[0.25,0,0],[0.5,0,0],[0.75,0,0],[1,0,0],[0,1,0],[0.25,1,0],[0.5,1,0],[0.75,1,0],[1,1,0],[0,0.25,0],[0,0.5,0],[0,0.75,0],[1,0.25,0],[1,0.5,0],[1,0.75,0]];points=[[0,0,0],[0.25,0,0],[0.5,0,0],[0.75,0,0],[1,0,0],[0,1,0],[0.25,1,0],[0.5,1,0],[0.75,1,0],[1,1,0],[0,0.25,0],[0,0.5,0],[0,0.75,0],[1,0.25,0],[1,0.5,0],[1,0.75,0]];outlineConnect=0;fontColor=#232F3E;gradientColor=#F34482;gradientDirection=north;fillColor=#BC1356;strokeColor=#ffffff;dashed=0;verticalLabelPosition=bottom;verticalAlign=top;align=center;html=1;fontSize=12;fontStyle=0;aspect=fixed;shape=mxgraph.aws4.resourceIcon;resIcon=mxgraph.aws4.cloudwatch_2;" parent="1" vertex="1">
          <mxGeometry x="764" y="1570" width="90" height="90" as="geometry" />
        </mxCell>
        <mxCell id="dF6AwYc84KTf_iCbITUC-72" value="" style="endArrow=classic;html=1;rounded=0;strokeWidth=3;" parent="1" edge="1">
          <mxGeometry width="50" height="50" relative="1" as="geometry">
            <mxPoint x="727" y="1154.25" as="sourcePoint" />
            <mxPoint x="927" y="1074.25" as="targetPoint" />
            <Array as="points">
              <mxPoint x="927" y="1154.25" />
            </Array>
          </mxGeometry>
        </mxCell>
        <mxCell id="ikV1LDkkVOYunyuP8x4d-93" value="&lt;font style=&quot;font-size: 18px;&quot;&gt;Frontend Service &lt;br&gt;ALB(internet-facing)&lt;/font&gt;" style="text;html=1;align=center;verticalAlign=middle;resizable=0;points=[];autosize=1;strokeColor=none;fillColor=none;" parent="1" vertex="1">
          <mxGeometry x="-88.5" y="289.25" width="180" height="60" as="geometry" />
        </mxCell>
        <mxCell id="ikV1LDkkVOYunyuP8x4d-7" value="" style="endArrow=classic;html=1;rounded=0;" parent="1" edge="1">
          <mxGeometry width="50" height="50" relative="1" as="geometry">
            <mxPoint x="-15.83000000000002" y="415" as="sourcePoint" />
            <mxPoint x="-15.83000000000002" y="345" as="targetPoint" />
          </mxGeometry>
        </mxCell>
        <mxCell id="ikV1LDkkVOYunyuP8x4d-90" value="&lt;font style=&quot;font-size: 18px;&quot;&gt;ACM&lt;/font&gt;" style="text;html=1;align=center;verticalAlign=middle;resizable=0;points=[];autosize=1;strokeColor=none;fillColor=none;" parent="1" vertex="1">
          <mxGeometry x="-45" y="487" width="60" height="40" as="geometry" />
        </mxCell>
        <mxCell id="ikV1LDkkVOYunyuP8x4d-3" value="" style="outlineConnect=0;dashed=0;verticalLabelPosition=bottom;verticalAlign=top;align=center;html=1;shape=mxgraph.aws3.application_load_balancer;fillColor=#F58534;gradientColor=none;" parent="1" vertex="1">
          <mxGeometry x="-50" y="207.5" width="81.5" height="85" as="geometry" />
        </mxCell>
        <mxCell id="dF6AwYc84KTf_iCbITUC-84" value="&lt;b&gt;&lt;font style=&quot;font-size: 18px;&quot;&gt;RDS&lt;/font&gt;&lt;/b&gt;" style="rounded=0;whiteSpace=wrap;html=1;fillColor=#dae8fc;strokeColor=#6c8ebf;" parent="1" vertex="1">
          <mxGeometry x="183" y="1056.25" width="217" height="40" as="geometry" />
        </mxCell>
        <mxCell id="dF6AwYc84KTf_iCbITUC-75" value="&lt;font style=&quot;font-size: 18px;&quot;&gt;CloudWatch&lt;/font&gt;" style="text;html=1;align=center;verticalAlign=middle;resizable=0;points=[];autosize=1;strokeColor=none;fillColor=none;" parent="1" vertex="1">
          <mxGeometry x="610" y="1216.25" width="120" height="40" as="geometry" />
        </mxCell>
        <mxCell id="dF6AwYc84KTf_iCbITUC-87" value="&lt;font style=&quot;font-size: 18px;&quot;&gt;CPUUtilization, ReadLatency, WriteLatency&lt;/font&gt;" style="text;html=1;align=center;verticalAlign=middle;resizable=0;points=[];autosize=1;strokeColor=none;fillColor=none;" parent="1" vertex="1">
          <mxGeometry x="120" y="1011.25" width="370" height="40" as="geometry" />
        </mxCell>
        <mxCell id="dF6AwYc84KTf_iCbITUC-88" value="&lt;font style=&quot;font-size: 18px;&quot;&gt;Application logs&lt;/font&gt;" style="text;html=1;align=center;verticalAlign=middle;resizable=0;points=[];autosize=1;strokeColor=none;fillColor=none;" parent="1" vertex="1">
          <mxGeometry x="216.5" y="1143.25" width="150" height="40" as="geometry" />
        </mxCell>
        <mxCell id="dF6AwYc84KTf_iCbITUC-93" value="" style="endArrow=classic;html=1;rounded=0;" parent="1" edge="1">
          <mxGeometry width="50" height="50" relative="1" as="geometry">
            <mxPoint x="410" y="1203.25" as="sourcePoint" />
            <mxPoint x="577.5" y="1203.25" as="targetPoint" />
          </mxGeometry>
        </mxCell>
        <mxCell id="dF6AwYc84KTf_iCbITUC-92" value="" style="endArrow=classic;html=1;rounded=0;" parent="1" edge="1">
          <mxGeometry width="50" height="50" relative="1" as="geometry">
            <mxPoint x="410" y="1346.25" as="sourcePoint" />
            <mxPoint x="570" y="1236.25" as="targetPoint" />
          </mxGeometry>
        </mxCell>
        <mxCell id="dF6AwYc84KTf_iCbITUC-94" value="" style="endArrow=classic;html=1;rounded=0;" parent="1" edge="1">
          <mxGeometry width="50" height="50" relative="1" as="geometry">
            <mxPoint x="420" y="1072.25" as="sourcePoint" />
            <mxPoint x="575" y="1152.25" as="targetPoint" />
          </mxGeometry>
        </mxCell>
        <mxCell id="bfF0iJRP3l3-DIMidtyF-6" value="" style="outlineConnect=0;dashed=0;verticalLabelPosition=bottom;verticalAlign=top;align=center;html=1;shape=mxgraph.aws3.iam;fillColor=#759C3E;gradientColor=none;" parent="1" vertex="1">
          <mxGeometry x="470" y="1570" width="52" height="81" as="geometry" />
        </mxCell>
        <mxCell id="bfF0iJRP3l3-DIMidtyF-12" value="" style="outlineConnect=0;dashed=0;verticalLabelPosition=bottom;verticalAlign=top;align=center;html=1;shape=mxgraph.aws3.kms;fillColor=#759C3E;gradientColor=none;" parent="1" vertex="1">
          <mxGeometry x="1066" y="1560" width="84" height="90" as="geometry" />
        </mxCell>
        <mxCell id="bfF0iJRP3l3-DIMidtyF-13" value="&lt;font style=&quot;font-size: 20px;&quot;&gt;KMS&lt;/font&gt;" style="text;html=1;align=center;verticalAlign=middle;resizable=0;points=[];autosize=1;strokeColor=none;fillColor=none;" parent="1" vertex="1">
          <mxGeometry x="1069.63" y="1670" width="70" height="40" as="geometry" />
        </mxCell>
        <mxCell id="bfF0iJRP3l3-DIMidtyF-17" value="" style="shape=image;verticalLabelPosition=bottom;labelBackgroundColor=default;verticalAlign=top;aspect=fixed;imageAspect=0;image=data:image/jpeg,/9j/4AAQSkZJRgABAQAAAQABAAD/2wCEAAkGBw0PDQ0NDQ4QDg0NDQ4QDQ0QDg8SDQ0NFREXGRURFRUYHS0gGRolGx8XLTEiJSorLjAyGCI/ODMtQyguLjEBCgoKDQ0NGA8PFjMlHR8rKzAtLSstNy8rLS0rLS0rKysrKystLSsrLSsrKy0rKysrLSstKysrKystKy0tKy8vLf/AABEIAOEA4QMBIgACEQEDEQH/xAAbAAADAAMBAQAAAAAAAAAAAAAAAQIEBQYHA//EAEQQAAICAAIGBQYKCgEFAAAAAAABAgMEEQUGEiExURMiQWGxFjJScZHRBzM0U2Jyc5OhshUjQlSBkqKzwdI1FCQlQ6P/xAAaAQEAAwEBAQAAAAAAAAAAAAAAAQIEBQMG/8QANBEAAgEDAQQIBgIBBQAAAAAAAAECAwQRMSFBYfAFElFxkaGxwRMUMlOB0TRSghUzQ+Hx/9oADAMBAAIRAxEAPwDJKIGfDn2ZRRIEAtDJGVYGAAQChkFEAZSJAq0CwEMgDGICAMokCrQLGSMgDKJAgFDEBUDKJGQChkjIAAAEA0wElHTaAyiBkAookCAWMkZUDAAIBQyCiAMokCrQLGQUQBjEBAGUSBVoFjJGQBlEgQChiAqChkjIBQCAgGmEAzqAYElFWgMogZAKKJAgFjJGVAwACAUdFq3q878rrk1QvNjvTtfdyj3i1Y1edzV96aoT6keDtf8Ar3nVy0nVHE1YOCTm1LaSy2a4xg2l6+G7l/A69jYR2Va+jawnvb0/67e45l5eSTdKj9STbfYl7+neaHWHVpRi7sLF9VdelNt5c457/wCByiZ6VjNK11X1U2dXpYNwsb6qlnlsvlnzNFrPq952Iw8d+921JcecorxRfpDo+MutUt9Y/VFeOUu7bjfqjzsr2S6tOtv+lvfwfPBnJjJTGcE64xiAgDKJAq0CxkjIAyiQIBQxAVAwACAaYZIzqAYIBkAYEoorgDKRAyAUUSBALOi1X0D/ANQ+mu+JjLJRz32SXZ3I5wztGaWvw230U9lTi1JNZrPsklzR7WsqUaqlVWY842bzxuI1JU2qTxLnwOv1k0/HDR6CjLpsknkls0Ry3bvSy4Ls8ef1Pk3pCptttxtbbebbcHm2zSOTbbbbbbbbebbfFtm71N+X1fVt/IzT81O5u6cpbEpLC7NqM/y0KFtOMdeq8vt2Gw1++Oo+zf5j66saw+bh8RLkqrW/ZCT8GfHX/wCOo+yl+Y5ctc3NS3v5zh2rK7di54FKFCFazhCfZ4a88Tr9atApKeJoSilvthuS+uv8o5NGVidKYi2qumyxyrh5q7Xy2n25dhhmK9qUqtXr0o4T1795ptqdSnT6tSWWvTcWMlDMhoGMQEAZRIFWgWMkZAGUSBAKEICuAaYogZ1AWMkZAKEAyAMCUUVaAyiBkAookCAWbvUz5fT9W38jNGZOjMfPD2xurUXOKkkmm471l2NHpQkoVYTeiafgzyrRc6corVprxR0ev/x2H+zl+Y5Uz9L6XsxcoTsUIuEXFbCaWTee/NswC17UjVuJzjo/0l7FbWnKnRjCWqKGQUZT3GUiQKtAsZKGQBjEBAGUSBVoFjJGQAAYEA0oCGdNoDKIGQCxkjIBQkdRqzq1XiaJ3WWb5bUIRg03VNftTXPu5PvWWh0lo+3DWyqtWUlvTXmzj2Si+R7VLepCnGo1slys9md372HjC4pzqSpxe2POzuMcCSjM0ewzodXNW3ioStnY66lJxjks5zkuPHgjnT0nUf5BD7SzxNvR1CFav1ZrKw36fsxX9adKh1oPbnHqYnkRR89b7Ie4PIjD/PW+yHuOSemcZm/+6u4v/wBk/eH6Zxn71d95P3nr81YfYfP5PP5e8+8dd5E0fP2+yHuDyJp+es/lh7jkv0zjP3m77yfvD9M4z95u+8n7yHd2CWfgc+IVveP/AJjf6Y1ThTRZdXbKTrW04ySyce3JrgzlT0bGyb0U2225YODk297bgs22eclOk6FKnOHw44TRawq1KkJfEeWngoZBRyzeMoeHpnZNV1xblJ5RiuLZ0+N1XhXhHPpEr6052SbyrkvQXfyfa/Xu9qNpVrKTgtkdf13njVuKdJxjN7Xpz2HMDJQzMewxiAgDKJAq0CgEBGAaYYgOoCgEMqwMo3GA1Xxl9ULqowddizi3NJ5Z5cDI8jMf6MPvInt8pXayoPwPF3NFPDmvFGv0Lpa3CWqyt5xeSsrb6s48nyfJ9ntR39tWF0phU0+ezLJdJTZlvTXiuD9jOR8jMf6EPvImw0LoTSmEtVlag08lOt2LZsjyffyfZ7UbrRV6WadSm3B6rGnd7rfqtuuG6+BUxUp1EprR514P2e7R7NOa0lo63DWyqtWUlvi15s49kovkYp6xpbRdWLp2LVsyyzhPc51Ty/HvXaeY6SwNmHulVYsnHemvNnF8JLuZlvbN28srbF7+zg/b9nvZ3ka6w9klrx4oxz0nUf5BD7SzxPND0rUb5BD7SzxPXoj+T/i/VHn0r/H/ACvRnnUuL+sxBLi/rMRyVodJ6m21f0U8Xeq83GuK2rJLio58F3t/55HbTp0ZhFGE40V5rdtpSsa5tvN5Gk+DuyO1ioftSjXJc3GLkn+LXtMHW3R+IWLsscJyhbsuE4xclkopbO7g93A7Nu1b2irwh1pSbzwWWvbdvZyK6de6dGU8RS3bMvC/G/wR1unJ1/o+5xcejdOUHFrZaeSio5buR5qbS/QuNhhulmnGlPadbk9qGe7acOzxNUY+ka06s4uUOrs386GqyoxpQkoz620Z9MPTOyca64tzk8oxXFsmiqVk41wi5Tm1GMVxbZ6Lq/oSGFhm8pXSXXn2JehHu8fwPOzsp3M8aRWr/XH08na6u428cva3oud3r6fPQ+i6cDTK22Uek2c7bX5sI+hHu/Fv+COW0/pueJnsxzjRB9WPa36Uu/wN3p/R+PxUslGMaIvqx6SOcn2Tl3+BqfJLG+jD7xHQvFXcfl6FJqmuGvvjv1e1mK1+EpfGrVE5vitntn00Royjd+SeN9GH3iFLVXGJNtQySbf6xcEcr5C6+2/A6HzVD+68TTDJTGZD3GMQEAYABXANMMkZ1GBjEBUHS6N1wvw9FdEKq5RrTSctvae9vfkzK8vcT8zT/wDT3nIjNCvLhLCm8fj9GZ2du224LL57TrvLzE/M0/1+8ytG62Y7E2xqqw9TcuL/AFmzCPbKTz3I5HRuAtxNsaqo7Tlvb/ZhHtlJ9iPSMPRhdF4Vyb3LLbnkukusy3RS8F2e1my0nc1m5SqNRWr2eC2eL3GO6hbUV1Y005vRe72+C3mfj8fXhqXdfJZRSTyW+c8vNjHPi+WZ5hpjSk8Ve7ZpRzSjCC4Qgs8ln28Xv7x6b0vbi7due6KzVdafVhH/AC+bMAz3t6676sfpXnxft5ntZWSoLrS+p+XBe/kUek6jfIIfaWeJ5qekaiSTwEcnwtsT7nnn4ZF+if5P+L9UU6V/j/lejPOpcX62I9Beo+E+cv8A5q/9TV6w6rUYfDSvqsm3BxzjZsNSUpJbskt+88J9G3FODk8YSy9vYe0ekLec1GL2vgc3gMZZRbG6p5Ti93Jrti12pna4XXbDuK6WFkJ5b9lKUG+555/gafVfV2vFVTtssnFKzYUYbOe6KebbT5/gbzyIwnzl/wDNX/qabOjewh1qWMS24fr2rxM93Us5z6tXOV2Z8OUZ+mblZo66yOaVmH2o58UpJNZnmZ6VpqEatG3QT6teHVcXLLN5JRWfezzMr0x/uQzrj3/9HRWPhzxp1vY++ExM6rIW1vKdclKOe9Z8n3HpehNMV4uvaj1Zxy6StvfF81zXeeXmRgcZZRZG2qWzOPsa7YtdqMlleytpbdsXqvdcfU0XlpG4j2SWj9nw9DstOaexmFsylTVKuWexZlPKS5cdz7jXeWuI+Zq/r95v8Fi8NpHDOE0s8l0lefWhLslF+DOL01oizCWbEutXLPYnlumuXc+433s7mmlVo1G4Pu2eXOjMdrTt5t0qtNKa8/PnVG28tb/mqv6/eKzXG+UXF1VdZNft9v8AE5go5n+o3f3H5fo3fI2321z+RopEgYcGosZKGQBgIRANOMkZ1AUMkZUDGICoO01R09g8PhrIzXR2wznOSWcsQs9yXeuGXDt5nP6b0xbjLeknuis1XWn1YR/y+bNYM96lxOdONJ6Lz7+eOp4QtqcKsqqW1+Xdzw0GUQMzHuWffDYy6rPobbK8+OxOUc/XkzHGE2nlMYT1N/q5pS+WNw8bcRbKEpuLi7rHFtxaimm/SyN78IFNsqqJQTdUZS6XLNqLaWzJ93nb+/vOEjJppptNPNNPJp80dzojXSvYUMWpRsSydkY5xn3tLen6t3q4HRta0KlKdCrPHW0b/Gzy/KbRzrqlOFWFelHONjXjt8/Qxfg9qs6W6zKSpdWy3v2ZWbS2cubS2vVn3ka5aRthjNim6yCjVBSjG2cYqbzfBPjk4m0x2umGhBrDqVs8urnFxrT789/8EvYcLiMRO2ydlj2pTk5SlzbFxWp0beNClPLzltbOPKTK29KpVryr1IdVYwk9eeLR9r8dfatmy2yyKeeU7JyWfPJs+BAzlSbk8tnTSS0KKJAqDKwOMsosjbVLZnH2NdsWu1HW6R1hwl2Ce3Dasn1egfGFiXn7XJdj7eHM4oZooXdSjGUI6S3P1M9a2p1ZRlLWO9a9wwADIaChkFEAZSJAq0CgEBANMMQHTBQyRgFDJGVAxiAgFAIZXAGUQMgFn3wODtvsjVTHbnLPZjnFZ5LN728uBjm+1I/5Gj6lv9tl6MFOpGD3tLxPOtNwpyktyb8DXaR0ZfhpRjfDYlNNxW1CWaT+i2YiOt+EX4/D/Zy/McmWuaUaVaUI6L9J+5W2qurRjOWrGBKKM2D2GUQMgFFEgQC0MkZVgYABAKGQUQBgAEYBpSiBnTBQxAVBQyRgFDJGVAxiAgFGRgsDde5qmuU3CDnPZXCK/wA93FmMdbqTp6qnPC3KMYznnC3JLrvsm+XJ9nh6UKcJ1FGcsJ89y/J43E5wpuVOOWt3rxfcjlEzf6jf8jT9W3+2ze63asKzPE4aP6zfK2qK+M5yivS5rt9fHRajv/yNP1bf7bPdW86F1CMv7LD7dq5a3d2G/B3EK9tOcP6vK7NnOHvNl8I3x+H+zl+Y5I6z4R/j8N9nL8x89U9Wnds4jELKlb64Pja+b+j4k3NCda8nCHavxsW1lbetClZwnN7Me72I523CWwrhbOuUa7M9ibXVnlyPidzrppumNcsHXGNk3kptpONWXBL6XgcOZ7qjClU6kJZxr38+Gm497arOrT6844zp3bnzrrvGBJRkaNAyiBkAookCAWMkZUDAAIAwEBANMMQHUBRRAyoKGICoKGSMAoZIyoGMQFQdpqhrPs7OFxUurujVbJ+ZyhJ+jyfZ6uHQ/oKuOOhjasoPOzp4PzZOUGtuPJ58efH1+VnZ6pa0bGzhcVLKC3V3Sfxf0Jv0eT7PVw6tpdRl1aVbc1h9jXb6eTOVeWko9arQ1aaku1Pn3R0WlNBQxOKputedVNbXR+nNyzyf0fE1utWsioTw2Ga6bLKc1woXJfS8CdZ9a4VwdOEsjO2S32xalCtfRa3OXgcE3nve9ve2+LfMveXcablGj9UtX+udneednaSqKM630x+le75y+7Vt573vb3tvi3zGSM4eDslCAYAwJKKtAZRAyAUUSBALGSMqwMBAQDTDIKOoBjEBAKKIGVBQxAVBQyRgFDJGVAxiAqCgEMjAGUQMgFjJGQBggGQBgSiiuAMpEDIBRRIEAoAEVwDSjJGdQFjIKIAxiAgFFEDKgoYgKgoZIwChkjK4AxiAqCgEMjAGUQMgFjJGQChAMgDAlFFWgMogZAKAAKg0qGAHUYGMAKgYwAgAUgAhgYwAgAhoAKgoAAqwNDQAQAKACACGAEMDGgAgDGAFQCKACGBgAFQAABBB/9k=;" parent="1" vertex="1">
          <mxGeometry x="748.77" y="193.25" width="90.75" height="90.75" as="geometry" />
        </mxCell>
        <mxCell id="bfF0iJRP3l3-DIMidtyF-18" value="" style="shape=image;verticalLabelPosition=bottom;labelBackgroundColor=default;verticalAlign=top;aspect=fixed;imageAspect=0;image=data:image/jpeg,/9j/4AAQSkZJRgABAQAAAQABAAD/2wCEAAkGBw0PDQ0NDQ4QDg0NDQ4QDQ0QDg8SDQ0NFREXGRURFRUYHS0gGRolGx8XLTEiJSorLjAyGCI/ODMtQyguLjEBCgoKDQ0NGA8PFjMlHR8rKzAtLSstNy8rLS0rLS0rKysrKystLSsrLSsrKy0rKysrLSstKysrKystKy0tKy8vLf/AABEIAOEA4QMBIgACEQEDEQH/xAAbAAADAAMBAQAAAAAAAAAAAAAAAQIEBQYHA//EAEQQAAICAAIGBQYKCgEFAAAAAAABAgMEEQUGEiExURMiQWGxFjJScZHRBzM0U2Jyc5OhshUjQlSBkqKzwdI1FCQlQ6P/xAAaAQEAAwEBAQAAAAAAAAAAAAAAAQIEBQMG/8QANBEAAgEDAQQIBgIBBQAAAAAAAAECAwQRMSFBYfAFElFxkaGxwRMUMlOB0TRSghUzQ+Hx/9oADAMBAAIRAxEAPwDJKIGfDn2ZRRIEAtDJGVYGAAQChkFEAZSJAq0CwEMgDGICAMokCrQLGSMgDKJAgFDEBUDKJGQChkjIAAAEA0wElHTaAyiBkAookCAWMkZUDAAIBQyCiAMokCrQLGQUQBjEBAGUSBVoFjJGQBlEgQChiAqChkjIBQCAgGmEAzqAYElFWgMogZAKKJAgFjJGVAwACAUdFq3q878rrk1QvNjvTtfdyj3i1Y1edzV96aoT6keDtf8Ar3nVy0nVHE1YOCTm1LaSy2a4xg2l6+G7l/A69jYR2Va+jawnvb0/67e45l5eSTdKj9STbfYl7+neaHWHVpRi7sLF9VdelNt5c457/wCByiZ6VjNK11X1U2dXpYNwsb6qlnlsvlnzNFrPq952Iw8d+921JcecorxRfpDo+MutUt9Y/VFeOUu7bjfqjzsr2S6tOtv+lvfwfPBnJjJTGcE64xiAgDKJAq0CxkjIAyiQIBQxAVAwACAaYZIzqAYIBkAYEoorgDKRAyAUUSBALOi1X0D/ANQ+mu+JjLJRz32SXZ3I5wztGaWvw230U9lTi1JNZrPsklzR7WsqUaqlVWY842bzxuI1JU2qTxLnwOv1k0/HDR6CjLpsknkls0Ry3bvSy4Ls8ef1Pk3pCptttxtbbebbcHm2zSOTbbbbbbbbebbfFtm71N+X1fVt/IzT81O5u6cpbEpLC7NqM/y0KFtOMdeq8vt2Gw1++Oo+zf5j66saw+bh8RLkqrW/ZCT8GfHX/wCOo+yl+Y5ctc3NS3v5zh2rK7di54FKFCFazhCfZ4a88Tr9atApKeJoSilvthuS+uv8o5NGVidKYi2qumyxyrh5q7Xy2n25dhhmK9qUqtXr0o4T1795ptqdSnT6tSWWvTcWMlDMhoGMQEAZRIFWgWMkZAGUSBAKEICuAaYogZ1AWMkZAKEAyAMCUUVaAyiBkAookCAWbvUz5fT9W38jNGZOjMfPD2xurUXOKkkmm471l2NHpQkoVYTeiafgzyrRc6corVprxR0ev/x2H+zl+Y5Uz9L6XsxcoTsUIuEXFbCaWTee/NswC17UjVuJzjo/0l7FbWnKnRjCWqKGQUZT3GUiQKtAsZKGQBjEBAGUSBVoFjJGQAAYEA0oCGdNoDKIGQCxkjIBQkdRqzq1XiaJ3WWb5bUIRg03VNftTXPu5PvWWh0lo+3DWyqtWUlvTXmzj2Si+R7VLepCnGo1slys9md372HjC4pzqSpxe2POzuMcCSjM0ewzodXNW3ioStnY66lJxjks5zkuPHgjnT0nUf5BD7SzxNvR1CFav1ZrKw36fsxX9adKh1oPbnHqYnkRR89b7Ie4PIjD/PW+yHuOSemcZm/+6u4v/wBk/eH6Zxn71d95P3nr81YfYfP5PP5e8+8dd5E0fP2+yHuDyJp+es/lh7jkv0zjP3m77yfvD9M4z95u+8n7yHd2CWfgc+IVveP/AJjf6Y1ThTRZdXbKTrW04ySyce3JrgzlT0bGyb0U2225YODk297bgs22eclOk6FKnOHw44TRawq1KkJfEeWngoZBRyzeMoeHpnZNV1xblJ5RiuLZ0+N1XhXhHPpEr6052SbyrkvQXfyfa/Xu9qNpVrKTgtkdf13njVuKdJxjN7Xpz2HMDJQzMewxiAgDKJAq0CgEBGAaYYgOoCgEMqwMo3GA1Xxl9ULqowddizi3NJ5Z5cDI8jMf6MPvInt8pXayoPwPF3NFPDmvFGv0Lpa3CWqyt5xeSsrb6s48nyfJ9ntR39tWF0phU0+ezLJdJTZlvTXiuD9jOR8jMf6EPvImw0LoTSmEtVlag08lOt2LZsjyffyfZ7UbrRV6WadSm3B6rGnd7rfqtuuG6+BUxUp1EprR514P2e7R7NOa0lo63DWyqtWUlvi15s49kovkYp6xpbRdWLp2LVsyyzhPc51Ty/HvXaeY6SwNmHulVYsnHemvNnF8JLuZlvbN28srbF7+zg/b9nvZ3ka6w9klrx4oxz0nUf5BD7SzxPND0rUb5BD7SzxPXoj+T/i/VHn0r/H/ACvRnnUuL+sxBLi/rMRyVodJ6m21f0U8Xeq83GuK2rJLio58F3t/55HbTp0ZhFGE40V5rdtpSsa5tvN5Gk+DuyO1ioftSjXJc3GLkn+LXtMHW3R+IWLsscJyhbsuE4xclkopbO7g93A7Nu1b2irwh1pSbzwWWvbdvZyK6de6dGU8RS3bMvC/G/wR1unJ1/o+5xcejdOUHFrZaeSio5buR5qbS/QuNhhulmnGlPadbk9qGe7acOzxNUY+ka06s4uUOrs386GqyoxpQkoz620Z9MPTOyca64tzk8oxXFsmiqVk41wi5Tm1GMVxbZ6Lq/oSGFhm8pXSXXn2JehHu8fwPOzsp3M8aRWr/XH08na6u428cva3oud3r6fPQ+i6cDTK22Uek2c7bX5sI+hHu/Fv+COW0/pueJnsxzjRB9WPa36Uu/wN3p/R+PxUslGMaIvqx6SOcn2Tl3+BqfJLG+jD7xHQvFXcfl6FJqmuGvvjv1e1mK1+EpfGrVE5vitntn00Royjd+SeN9GH3iFLVXGJNtQySbf6xcEcr5C6+2/A6HzVD+68TTDJTGZD3GMQEAYABXANMMkZ1GBjEBUHS6N1wvw9FdEKq5RrTSctvae9vfkzK8vcT8zT/wDT3nIjNCvLhLCm8fj9GZ2du224LL57TrvLzE/M0/1+8ytG62Y7E2xqqw9TcuL/AFmzCPbKTz3I5HRuAtxNsaqo7Tlvb/ZhHtlJ9iPSMPRhdF4Vyb3LLbnkukusy3RS8F2e1my0nc1m5SqNRWr2eC2eL3GO6hbUV1Y005vRe72+C3mfj8fXhqXdfJZRSTyW+c8vNjHPi+WZ5hpjSk8Ve7ZpRzSjCC4Qgs8ln28Xv7x6b0vbi7due6KzVdafVhH/AC+bMAz3t6676sfpXnxft5ntZWSoLrS+p+XBe/kUek6jfIIfaWeJ5qekaiSTwEcnwtsT7nnn4ZF+if5P+L9UU6V/j/lejPOpcX62I9Beo+E+cv8A5q/9TV6w6rUYfDSvqsm3BxzjZsNSUpJbskt+88J9G3FODk8YSy9vYe0ekLec1GL2vgc3gMZZRbG6p5Ti93Jrti12pna4XXbDuK6WFkJ5b9lKUG+555/gafVfV2vFVTtssnFKzYUYbOe6KebbT5/gbzyIwnzl/wDNX/qabOjewh1qWMS24fr2rxM93Us5z6tXOV2Z8OUZ+mblZo66yOaVmH2o58UpJNZnmZ6VpqEatG3QT6teHVcXLLN5JRWfezzMr0x/uQzrj3/9HRWPhzxp1vY++ExM6rIW1vKdclKOe9Z8n3HpehNMV4uvaj1Zxy6StvfF81zXeeXmRgcZZRZG2qWzOPsa7YtdqMlleytpbdsXqvdcfU0XlpG4j2SWj9nw9DstOaexmFsylTVKuWexZlPKS5cdz7jXeWuI+Zq/r95v8Fi8NpHDOE0s8l0lefWhLslF+DOL01oizCWbEutXLPYnlumuXc+433s7mmlVo1G4Pu2eXOjMdrTt5t0qtNKa8/PnVG28tb/mqv6/eKzXG+UXF1VdZNft9v8AE5go5n+o3f3H5fo3fI2321z+RopEgYcGosZKGQBgIRANOMkZ1AUMkZUDGICoO01R09g8PhrIzXR2wznOSWcsQs9yXeuGXDt5nP6b0xbjLeknuis1XWn1YR/y+bNYM96lxOdONJ6Lz7+eOp4QtqcKsqqW1+Xdzw0GUQMzHuWffDYy6rPobbK8+OxOUc/XkzHGE2nlMYT1N/q5pS+WNw8bcRbKEpuLi7rHFtxaimm/SyN78IFNsqqJQTdUZS6XLNqLaWzJ93nb+/vOEjJppptNPNNPJp80dzojXSvYUMWpRsSydkY5xn3tLen6t3q4HRta0KlKdCrPHW0b/Gzy/KbRzrqlOFWFelHONjXjt8/Qxfg9qs6W6zKSpdWy3v2ZWbS2cubS2vVn3ka5aRthjNim6yCjVBSjG2cYqbzfBPjk4m0x2umGhBrDqVs8urnFxrT789/8EvYcLiMRO2ydlj2pTk5SlzbFxWp0beNClPLzltbOPKTK29KpVryr1IdVYwk9eeLR9r8dfatmy2yyKeeU7JyWfPJs+BAzlSbk8tnTSS0KKJAqDKwOMsosjbVLZnH2NdsWu1HW6R1hwl2Ce3Dasn1egfGFiXn7XJdj7eHM4oZooXdSjGUI6S3P1M9a2p1ZRlLWO9a9wwADIaChkFEAZSJAq0CgEBANMMQHTBQyRgFDJGVAxiAgFAIZXAGUQMgFn3wODtvsjVTHbnLPZjnFZ5LN728uBjm+1I/5Gj6lv9tl6MFOpGD3tLxPOtNwpyktyb8DXaR0ZfhpRjfDYlNNxW1CWaT+i2YiOt+EX4/D/Zy/McmWuaUaVaUI6L9J+5W2qurRjOWrGBKKM2D2GUQMgFFEgQC0MkZVgYABAKGQUQBgAEYBpSiBnTBQxAVBQyRgFDJGVAxiAgFGRgsDde5qmuU3CDnPZXCK/wA93FmMdbqTp6qnPC3KMYznnC3JLrvsm+XJ9nh6UKcJ1FGcsJ89y/J43E5wpuVOOWt3rxfcjlEzf6jf8jT9W3+2ze63asKzPE4aP6zfK2qK+M5yivS5rt9fHRajv/yNP1bf7bPdW86F1CMv7LD7dq5a3d2G/B3EK9tOcP6vK7NnOHvNl8I3x+H+zl+Y5I6z4R/j8N9nL8x89U9Wnds4jELKlb64Pja+b+j4k3NCda8nCHavxsW1lbetClZwnN7Me72I523CWwrhbOuUa7M9ibXVnlyPidzrppumNcsHXGNk3kptpONWXBL6XgcOZ7qjClU6kJZxr38+Gm497arOrT6844zp3bnzrrvGBJRkaNAyiBkAookCAWMkZUDAAIAwEBANMMQHUBRRAyoKGICoKGSMAoZIyoGMQFQdpqhrPs7OFxUurujVbJ+ZyhJ+jyfZ6uHQ/oKuOOhjasoPOzp4PzZOUGtuPJ58efH1+VnZ6pa0bGzhcVLKC3V3Sfxf0Jv0eT7PVw6tpdRl1aVbc1h9jXb6eTOVeWko9arQ1aaku1Pn3R0WlNBQxOKputedVNbXR+nNyzyf0fE1utWsioTw2Ga6bLKc1woXJfS8CdZ9a4VwdOEsjO2S32xalCtfRa3OXgcE3nve9ve2+LfMveXcablGj9UtX+udneednaSqKM630x+le75y+7Vt573vb3tvi3zGSM4eDslCAYAwJKKtAZRAyAUUSBALGSMqwMBAQDTDIKOoBjEBAKKIGVBQxAVBQyRgFDJGVAxiAqCgEMjAGUQMgFjJGQBggGQBgSiiuAMpEDIBRRIEAoAEVwDSjJGdQFjIKIAxiAgFFEDKgoYgKgoZIwChkjK4AxiAqCgEMjAGUQMgFjJGQChAMgDAlFFWgMogZAKAAKg0qGAHUYGMAKgYwAgAUgAhgYwAgAhoAKgoAAqwNDQAQAKACACGAEMDGgAgDGAFQCKACGBgAFQAABBB/9k=;" parent="1" vertex="1">
          <mxGeometry x="1134.63" y="193.25" width="90.75" height="90.75" as="geometry" />
        </mxCell>
        <mxCell id="bfF0iJRP3l3-DIMidtyF-21" value="" style="endArrow=classic;html=1;rounded=0;strokeWidth=2;strokeColor=#0000FF;" parent="1" edge="1">
          <mxGeometry width="50" height="50" relative="1" as="geometry">
            <mxPoint x="40.5" y="270" as="sourcePoint" />
            <mxPoint x="740.5" y="550" as="targetPoint" />
          </mxGeometry>
        </mxCell>
        <mxCell id="bfF0iJRP3l3-DIMidtyF-22" value="" style="outlineConnect=0;dashed=0;verticalLabelPosition=bottom;verticalAlign=top;align=center;html=1;shape=mxgraph.aws3.application_load_balancer;fillColor=#F58534;gradientColor=none;" parent="1" vertex="1">
          <mxGeometry x="960" y="195.12" width="78.5" height="87" as="geometry" />
        </mxCell>
        <mxCell id="bfF0iJRP3l3-DIMidtyF-24" value="&lt;font style=&quot;font-size: 18px;&quot;&gt;Backend Service &lt;br&gt;ALB(internal)&lt;/font&gt;" style="text;html=1;align=center;verticalAlign=middle;resizable=0;points=[];autosize=1;strokeColor=none;fillColor=none;" parent="1" vertex="1">
          <mxGeometry x="918" y="289.25" width="160" height="60" as="geometry" />
        </mxCell>
        <mxCell id="bfF0iJRP3l3-DIMidtyF-25" value="" style="endArrow=classic;html=1;rounded=0;strokeWidth=2;strokeColor=#FF33FF;" parent="1" edge="1">
          <mxGeometry width="50" height="50" relative="1" as="geometry">
            <mxPoint x="890" y="3" as="sourcePoint" />
            <mxPoint x="990" y="195" as="targetPoint" />
            <Array as="points" />
          </mxGeometry>
        </mxCell>
        <mxCell id="bfF0iJRP3l3-DIMidtyF-26" value="" style="endArrow=classic;html=1;rounded=0;strokeWidth=2;strokeColor=#FF33FF;" parent="1" edge="1">
          <mxGeometry width="50" height="50" relative="1" as="geometry">
            <mxPoint x="901" y="527" as="sourcePoint" />
            <mxPoint x="971" y="343" as="targetPoint" />
          </mxGeometry>
        </mxCell>
        <mxCell id="bfF0iJRP3l3-DIMidtyF-27" value="" style="endArrow=classic;html=1;rounded=0;strokeWidth=2;strokeColor=#FF33FF;" parent="1" edge="1">
          <mxGeometry width="50" height="50" relative="1" as="geometry">
            <mxPoint x="1008" y="191" as="sourcePoint" />
            <mxPoint x="1103" y="18" as="targetPoint" />
          </mxGeometry>
        </mxCell>
        <mxCell id="bfF0iJRP3l3-DIMidtyF-28" value="" style="endArrow=classic;html=1;rounded=0;strokeWidth=2;strokeColor=#FF33FF;" parent="1" edge="1">
          <mxGeometry width="50" height="50" relative="1" as="geometry">
            <mxPoint x="1006" y="352" as="sourcePoint" />
            <mxPoint x="1086" y="530.5" as="targetPoint" />
            <Array as="points" />
          </mxGeometry>
        </mxCell>
        <mxCell id="bfF0iJRP3l3-DIMidtyF-29" value="" style="sketch=0;outlineConnect=0;fontColor=#232F3E;gradientColor=none;fillColor=#4D27AA;strokeColor=none;dashed=0;verticalLabelPosition=bottom;verticalAlign=top;align=center;html=1;fontSize=12;fontStyle=0;aspect=fixed;pointerEvents=1;shape=mxgraph.aws4.internet_gateway;" parent="1" vertex="1">
          <mxGeometry x="-240" y="-34.75" width="88" height="88" as="geometry" />
        </mxCell>
        <mxCell id="bfF0iJRP3l3-DIMidtyF-35" value="" style="endArrow=classic;html=1;rounded=0;strokeWidth=2;strokeColor=#FF8000;" parent="1" edge="1">
          <mxGeometry width="50" height="50" relative="1" as="geometry">
            <mxPoint x="1086" y="-24.75" as="sourcePoint" />
            <mxPoint x="265.75" y="-54.75" as="targetPoint" />
          </mxGeometry>
        </mxCell>
        <mxCell id="bfF0iJRP3l3-DIMidtyF-37" value="" style="endArrow=classic;html=1;rounded=0;strokeWidth=2;strokeColor=#FF8000;exitX=0;exitY=0.5;exitDx=0;exitDy=0;exitPerimeter=0;" parent="1" source="bfF0iJRP3l3-DIMidtyF-20" target="bfF0iJRP3l3-DIMidtyF-29" edge="1">
          <mxGeometry width="50" height="50" relative="1" as="geometry">
            <mxPoint x="134" y="230" as="sourcePoint" />
            <mxPoint x="-162.25" y="50" as="targetPoint" />
            <Array as="points">
              <mxPoint x="-191" y="540" />
            </Array>
          </mxGeometry>
        </mxCell>
        <mxCell id="bfF0iJRP3l3-DIMidtyF-38" style="edgeStyle=orthogonalEdgeStyle;rounded=0;orthogonalLoop=1;jettySize=auto;html=1;strokeWidth=2;strokeColor=#FF8000;" parent="1" source="bfF0iJRP3l3-DIMidtyF-16" target="bfF0iJRP3l3-DIMidtyF-29" edge="1">
          <mxGeometry relative="1" as="geometry" />
        </mxCell>
        <mxCell id="bfF0iJRP3l3-DIMidtyF-49" value="&lt;font style=&quot;font-size: 18px;&quot;&gt;&lt;b&gt;AWS Cloud&lt;/b&gt;&lt;/font&gt;" style="text;html=1;align=center;verticalAlign=middle;resizable=0;points=[];autosize=1;strokeColor=none;fillColor=none;" parent="1" vertex="1">
          <mxGeometry x="-465" y="-420" width="120" height="40" as="geometry" />
        </mxCell>
        <mxCell id="bfF0iJRP3l3-DIMidtyF-50" value="&lt;font style=&quot;font-size: 18px;&quot;&gt;&lt;b&gt;Frontned service ASG&lt;/b&gt;&lt;/font&gt;" style="text;html=1;align=center;verticalAlign=middle;resizable=0;points=[];autosize=1;strokeColor=none;fillColor=none;" parent="1" vertex="1">
          <mxGeometry x="695" y="299.25" width="210" height="40" as="geometry" />
        </mxCell>
        <mxCell id="bfF0iJRP3l3-DIMidtyF-52" value="&lt;font style=&quot;font-size: 18px;&quot;&gt;&lt;b&gt;Backend service ASG&lt;/b&gt;&lt;/font&gt;" style="text;html=1;align=center;verticalAlign=middle;resizable=0;points=[];autosize=1;strokeColor=none;fillColor=none;" parent="1" vertex="1">
          <mxGeometry x="1080" y="300.8800000000001" width="210" height="40" as="geometry" />
        </mxCell>
        <mxCell id="bfF0iJRP3l3-DIMidtyF-53" value="&lt;font style=&quot;font-size: 18px;&quot;&gt;&lt;b&gt;Internet Gateway&lt;/b&gt;&lt;/font&gt;" style="text;html=1;align=center;verticalAlign=middle;resizable=0;points=[];autosize=1;strokeColor=none;fillColor=none;" parent="1" vertex="1">
          <mxGeometry x="-180" y="53.25" width="170" height="40" as="geometry" />
        </mxCell>
        <mxCell id="bfF0iJRP3l3-DIMidtyF-54" value="" style="sketch=0;points=[[0,0,0],[0.25,0,0],[0.5,0,0],[0.75,0,0],[1,0,0],[0,1,0],[0.25,1,0],[0.5,1,0],[0.75,1,0],[1,1,0],[0,0.25,0],[0,0.5,0],[0,0.75,0],[1,0.25,0],[1,0.5,0],[1,0.75,0]];outlineConnect=0;fontColor=#232F3E;gradientColor=#60A337;gradientDirection=north;fillColor=#277116;strokeColor=#ffffff;dashed=0;verticalLabelPosition=bottom;verticalAlign=top;align=center;html=1;fontSize=12;fontStyle=0;aspect=fixed;shape=mxgraph.aws4.resourceIcon;resIcon=mxgraph.aws4.s3;" parent="1" vertex="1">
          <mxGeometry x="684" y="-950" width="55" height="55" as="geometry" />
        </mxCell>
        <mxCell id="bfF0iJRP3l3-DIMidtyF-55" value="&lt;font style=&quot;font-size: 18px;&quot;&gt;S3 to store atrifacts&lt;/font&gt;" style="text;html=1;align=center;verticalAlign=middle;resizable=0;points=[];autosize=1;strokeColor=none;fillColor=none;" parent="1" vertex="1">
          <mxGeometry x="633.5" y="-887.5" width="180" height="40" as="geometry" />
        </mxCell>
        <mxCell id="bfF0iJRP3l3-DIMidtyF-56" value="" style="outlineConnect=0;dashed=0;verticalLabelPosition=bottom;verticalAlign=top;align=center;html=1;shape=mxgraph.aws3.ecr;fillColor=#F58534;gradientColor=none;" parent="1" vertex="1">
          <mxGeometry x="1207" y="-970" width="69" height="70" as="geometry" />
        </mxCell>
        <mxCell id="bfF0iJRP3l3-DIMidtyF-57" value="" style="shape=flexArrow;endArrow=classic;startArrow=classic;html=1;rounded=0;" parent="1" edge="1">
          <mxGeometry width="100" height="100" relative="1" as="geometry">
            <mxPoint x="900" y="-923" as="sourcePoint" />
            <mxPoint x="785" y="-923" as="targetPoint" />
          </mxGeometry>
        </mxCell>
        <mxCell id="bfF0iJRP3l3-DIMidtyF-58" value="" style="shape=flexArrow;endArrow=classic;startArrow=classic;html=1;rounded=0;" parent="1" edge="1">
          <mxGeometry width="100" height="100" relative="1" as="geometry">
            <mxPoint x="1178" y="-923" as="sourcePoint" />
            <mxPoint x="1063" y="-923" as="targetPoint" />
          </mxGeometry>
        </mxCell>
        <mxCell id="bfF0iJRP3l3-DIMidtyF-59" value="&lt;font style=&quot;font-size: 18px;&quot;&gt;&lt;b&gt;AZ 2&lt;/b&gt;&lt;/font&gt;" style="text;html=1;align=center;verticalAlign=middle;resizable=0;points=[];autosize=1;strokeColor=none;fillColor=none;" parent="1" vertex="1">
          <mxGeometry x="134" y="264.38" width="60" height="40" as="geometry" />
        </mxCell>
        <mxCell id="bfF0iJRP3l3-DIMidtyF-60" value="&lt;font style=&quot;font-size: 18px;&quot;&gt;&lt;b&gt;AZ 1&lt;/b&gt;&lt;/font&gt;" style="text;html=1;align=center;verticalAlign=middle;resizable=0;points=[];autosize=1;strokeColor=none;fillColor=none;" parent="1" vertex="1">
          <mxGeometry x="140" y="-230" width="60" height="40" as="geometry" />
        </mxCell>
        <mxCell id="_E0HPo_hIq8KFmw8rhUf-3" style="edgeStyle=orthogonalEdgeStyle;rounded=0;orthogonalLoop=1;jettySize=auto;html=1;strokeWidth=3;strokeColor=#3333FF;startArrow=classic;startFill=1;" parent="1" source="_E0HPo_hIq8KFmw8rhUf-1" target="ikV1LDkkVOYunyuP8x4d-35" edge="1">
          <mxGeometry relative="1" as="geometry">
            <Array as="points">
              <mxPoint x="1190" y="-131" />
            </Array>
          </mxGeometry>
        </mxCell>
        <mxCell id="_E0HPo_hIq8KFmw8rhUf-1" value="" style="sketch=0;points=[[0,0,0],[0.25,0,0],[0.5,0,0],[0.75,0,0],[1,0,0],[0,1,0],[0.25,1,0],[0.5,1,0],[0.75,1,0],[1,1,0],[0,0.25,0],[0,0.5,0],[0,0.75,0],[1,0.25,0],[1,0.5,0],[1,0.75,0]];outlineConnect=0;fontColor=#232F3E;gradientColor=#F54749;gradientDirection=north;fillColor=#C7131F;strokeColor=#ffffff;dashed=0;verticalLabelPosition=bottom;verticalAlign=top;align=center;html=1;fontSize=12;fontStyle=0;aspect=fixed;shape=mxgraph.aws4.resourceIcon;resIcon=mxgraph.aws4.secrets_manager;" parent="1" vertex="1">
          <mxGeometry x="1902" y="-170" width="78" height="78" as="geometry" />
        </mxCell>
        <mxCell id="_E0HPo_hIq8KFmw8rhUf-2" value="&lt;font style=&quot;font-size: 18px;&quot;&gt;Secrets Manager&lt;/font&gt;" style="text;html=1;align=center;verticalAlign=middle;resizable=0;points=[];autosize=1;strokeColor=none;fillColor=none;" parent="1" vertex="1">
          <mxGeometry x="1850" y="-83" width="160" height="40" as="geometry" />
        </mxCell>
        <mxCell id="_E0HPo_hIq8KFmw8rhUf-4" value="" style="sketch=0;points=[[0,0,0],[0.25,0,0],[0.5,0,0],[0.75,0,0],[1,0,0],[0,1,0],[0.25,1,0],[0.5,1,0],[0.75,1,0],[1,1,0],[0,0.25,0],[0,0.5,0],[0,0.75,0],[1,0.25,0],[1,0.5,0],[1,0.75,0]];points=[[0,0,0],[0.25,0,0],[0.5,0,0],[0.75,0,0],[1,0,0],[0,1,0],[0.25,1,0],[0.5,1,0],[0.75,1,0],[1,1,0],[0,0.25,0],[0,0.5,0],[0,0.75,0],[1,0.25,0],[1,0.5,0],[1,0.75,0]];outlineConnect=0;fontColor=#232F3E;gradientColor=#F34482;gradientDirection=north;fillColor=#BC1356;strokeColor=#ffffff;dashed=0;verticalLabelPosition=bottom;verticalAlign=top;align=center;html=1;fontSize=12;fontStyle=0;aspect=fixed;shape=mxgraph.aws4.resourceIcon;resIcon=mxgraph.aws4.cloudformation;" parent="1" vertex="1">
          <mxGeometry x="622" y="1122" width="78" height="78" as="geometry" />
        </mxCell>
        <mxCell id="_E0HPo_hIq8KFmw8rhUf-7" value="&lt;font style=&quot;font-size: 20px;&quot;&gt;CloudFormation&lt;/font&gt;" style="text;html=1;align=center;verticalAlign=middle;resizable=0;points=[];autosize=1;strokeColor=none;fillColor=none;" parent="1" vertex="1">
          <mxGeometry x="733" y="1680" width="170" height="40" as="geometry" />
        </mxCell>
        <mxCell id="_E0HPo_hIq8KFmw8rhUf-8" value="&lt;b&gt;&lt;font style=&quot;font-size: 36px;&quot;&gt;Application Platform&lt;/font&gt;&lt;/b&gt;" style="rounded=0;whiteSpace=wrap;html=1;fillColor=#f5f5f5;fontColor=#333333;strokeColor=#666666;" parent="1" vertex="1">
          <mxGeometry x="-454" y="1460" width="2508" height="60" as="geometry" />
        </mxCell>
        <mxCell id="_E0HPo_hIq8KFmw8rhUf-9" value="" style="outlineConnect=0;dashed=0;verticalLabelPosition=bottom;verticalAlign=top;align=center;html=1;shape=mxgraph.aws3.email;fillColor=#D9A741;gradientColor=none;" parent="1" vertex="1">
          <mxGeometry x="1661" y="1056.25" width="81" height="61.5" as="geometry" />
        </mxCell>
        <mxCell id="_E0HPo_hIq8KFmw8rhUf-11" value="&lt;font style=&quot;font-size: 18px;&quot;&gt;email notifications&lt;/font&gt;" style="text;html=1;align=center;verticalAlign=middle;resizable=0;points=[];autosize=1;strokeColor=none;fillColor=none;" parent="1" vertex="1">
          <mxGeometry x="1616.5" y="1117.75" width="170" height="40" as="geometry" />
        </mxCell>
        <mxCell id="_E0HPo_hIq8KFmw8rhUf-12" value="&lt;font style=&quot;font-size: 18px;&quot;&gt;SMS notifications&lt;/font&gt;" style="text;html=1;align=center;verticalAlign=middle;resizable=0;points=[];autosize=1;strokeColor=none;fillColor=none;" parent="1" vertex="1">
          <mxGeometry x="1615.5" y="1256.25" width="160" height="40" as="geometry" />
        </mxCell>
        <mxCell id="_E0HPo_hIq8KFmw8rhUf-13" value="" style="shape=image;html=1;verticalAlign=top;verticalLabelPosition=bottom;labelBackgroundColor=#ffffff;imageAspect=0;aspect=fixed;image=https://cdn0.iconfinder.com/data/icons/octicons/1024/repo-pull-128.png" parent="1" vertex="1">
          <mxGeometry x="701.5" y="-1100" width="25" height="25" as="geometry" />
        </mxCell>
        <mxCell id="_E0HPo_hIq8KFmw8rhUf-15" value="" style="shape=image;html=1;verticalAlign=top;verticalLabelPosition=bottom;labelBackgroundColor=#ffffff;imageAspect=0;aspect=fixed;image=https://cdn0.iconfinder.com/data/icons/octicons/1024/repo-pull-128.png" parent="1" vertex="1">
          <mxGeometry x="701.5" y="-1063.5" width="25" height="25" as="geometry" />
        </mxCell>
        <mxCell id="oGoN83IbTN7NaX29Flhy-1" value="&lt;font style=&quot;font-size: 16px;&quot;&gt;HTTPS port:443&lt;/font&gt;" style="text;html=1;align=center;verticalAlign=middle;resizable=0;points=[];autosize=1;strokeColor=none;fillColor=none;" vertex="1" parent="1">
          <mxGeometry x="-360" y="206.63" width="140" height="30" as="geometry" />
        </mxCell>
        <mxCell id="oGoN83IbTN7NaX29Flhy-2" value="&lt;font style=&quot;font-size: 16px;&quot;&gt;HTTP port:80&lt;/font&gt;" style="text;html=1;align=center;verticalAlign=middle;resizable=0;points=[];autosize=1;strokeColor=none;fillColor=none;" vertex="1" parent="1">
          <mxGeometry x="-350" y="252.12" width="120" height="30" as="geometry" />
        </mxCell>
        <mxCell id="oGoN83IbTN7NaX29Flhy-3" value="&lt;font style=&quot;font-size: 14px;&quot;&gt;Redirect to port 443&lt;/font&gt;" style="text;html=1;align=center;verticalAlign=middle;resizable=0;points=[];autosize=1;strokeColor=none;fillColor=none;" vertex="1" parent="1">
          <mxGeometry x="-365" y="284" width="150" height="30" as="geometry" />
        </mxCell>
        <mxCell id="oGoN83IbTN7NaX29Flhy-4" value="&lt;font style=&quot;font-size: 18px;&quot;&gt;DNS &quot;A&quot; Record pointing to ALB&lt;/font&gt;" style="text;html=1;align=center;verticalAlign=middle;resizable=0;points=[];autosize=1;strokeColor=none;fillColor=none;" vertex="1" parent="1">
          <mxGeometry x="-597" y="155.12" width="280" height="40" as="geometry" />
        </mxCell>
      </root>
    </mxGraphModel>
  </diagram>
  <diagram id="Y2eRDQBsvNJrsKetY9o-" name="Page-2">
    <mxGraphModel dx="1674" dy="764" grid="1" gridSize="10" guides="1" tooltips="1" connect="1" arrows="1" fold="1" page="1" pageScale="1" pageWidth="827" pageHeight="1169" math="0" shadow="0">
      <root>
        <mxCell id="0" />
        <mxCell id="1" parent="0" />
      </root>
    </mxGraphModel>
  </diagram>
</mxfile>
